<svg xmlns="http://www.w3.org/2000/svg" viewBox="0 0 750 500"><path d="M727.967 459.382c0 .144-158.489.26-353.95.26-195.529 0-353.984-.116-353.984-.26 0-.143 158.455-.26 353.984-.26 195.461 0 353.95.117 353.95.26Z" style="fill:#263238"/><path d="M605.515 138.66c4.037-1.002 5.79-1.851 7.865-5.316 2.138-3.57 2.516-8.527.978-12.392-1.874-4.708-6.404-7.693-10.234-11.011-3.83-3.319-4.672-7.758-3.516-12.692l-33.166-3.876c-1.157 4.934 2.404 9.708 6.234 13.026 3.83 3.318 8.36 6.303 10.233 11.011 1.539 3.865.926 8.438-1.302 11.95-2.228 3.513-3.503 4.756-7.54 5.758l30.448 3.542Z" style="fill:#fff"/><path d="M605.515 138.66s-.183-.001-.54-.033l-1.585-.156-6.084-.654-22.263-2.5-1.099-.123 1.074-.27c1.69-.425 3.458-1.013 4.808-2.294.674-.632 1.258-1.385 1.806-2.184.54-.81 1.093-1.628 1.517-2.52 1.729-3.53 2.008-8.201-.23-12.006-1.088-1.899-2.645-3.551-4.353-5.078-1.711-1.533-3.587-2.952-5.387-4.544-1.787-1.606-3.463-3.44-4.685-5.626-1.216-2.154-1.925-4.803-1.306-7.358l.055-.226.229.027.934.109 32.23 3.786.267.032-.06.262c-.424 1.83-.606 3.688-.375 5.47a10.62 10.62 0 0 0 1.858 4.859c.97 1.42 2.317 2.47 3.592 3.537 1.278 1.06 2.54 2.081 3.7 3.152 2.335 2.108 4.256 4.526 5.127 7.186.86 2.648.858 5.284.401 7.539a13.913 13.913 0 0 1-2.485 5.602c-1.045 1.478-2.344 2.42-3.488 2.912-1.146.502-2.078.732-2.702.891-.31.081-.555.131-.714.167-.16.034-.242.048-.242.041 0-.007.08-.034.237-.081l.698-.204c.615-.183 1.54-.438 2.657-.955 1.118-.51 2.36-1.438 3.37-2.904a13.757 13.757 0 0 0 2.383-5.526c.429-2.214.407-4.801-.448-7.37-.863-2.576-2.743-4.924-5.065-7-1.154-1.054-2.415-2.065-3.7-3.122-1.269-1.054-2.665-2.129-3.686-3.608a11.068 11.068 0 0 1-1.954-5.056c-.245-1.852-.06-3.767.367-5.64l.206.294-32.234-3.747-.935-.109.284-.2c-.58 2.396.077 4.9 1.252 6.988 1.18 2.114 2.818 3.917 4.573 5.496 1.774 1.575 3.653 3 5.38 4.552 1.725 1.548 3.32 3.241 4.442 5.211a12.481 12.481 0 0 1 1.652 6.354 14.19 14.19 0 0 1-1.44 6.09c-.446.927-1.012 1.759-1.56 2.571-.56.81-1.166 1.587-1.878 2.25-1.44 1.35-3.295 1.95-5.001 2.369l-.025-.393 22.212 2.673 6.082.761 1.588.213c.358.052.543.093.543.093Z" style="fill:#263238"/><path d="M594.565 103.707c-.007.071-1.194.013-3.109-.139a323.75 323.75 0 0 1-7.47-.7 323.937 323.937 0 0 1-7.457-.853c-1.905-.245-3.079-.433-3.07-.504.008-.072 1.196-.013 3.11.138s4.556.398 7.47.7c2.913.304 5.548.607 7.453.853 1.905.245 3.08.433 3.073.505ZM598.652 108.316c-.007.071-1.194.013-3.109-.138s-4.556-.398-7.47-.7a323.963 323.963 0 0 1-7.457-.853c-1.905-.246-3.079-.434-3.07-.505s1.196-.013 3.11.139c1.915.151 4.556.397 7.47.7 2.913.303 5.547.606 7.452.852 1.905.246 3.08.433 3.074.505ZM602.738 112.925c-.006.072-1.194.014-3.108-.138a323.206 323.206 0 0 1-7.471-.7 323.338 323.338 0 0 1-7.457-.853c-1.905-.246-3.078-.433-3.07-.505.008-.071 1.197-.013 3.111.139s4.556.397 7.47.7c2.913.303 5.547.607 7.452.852 1.905.246 3.08.434 3.073.505ZM606.825 117.534c-.007.072-1.194.014-3.109-.138a323.826 323.826 0 0 1-7.47-.7 323.963 323.963 0 0 1-7.457-.853c-1.905-.245-3.079-.433-3.07-.504.008-.072 1.196-.014 3.11.138 1.915.152 4.556.397 7.47.7 2.913.303 5.548.607 7.453.852 1.904.246 3.08.434 3.073.505ZM609.943 122.396c-.007.071-1.194.013-3.109-.138a324.296 324.296 0 0 1-7.471-.7 323.883 323.883 0 0 1-7.457-.853c-1.904-.246-3.078-.434-3.07-.505.008-.071 1.197-.013 3.111.139 1.915.151 4.556.397 7.47.7 2.913.303 5.547.606 7.452.852 1.905.246 3.08.433 3.074.505ZM609.927 127.555c-.007.072-1.194.014-3.109-.138a323.81 323.81 0 0 1-7.471-.7 323.38 323.38 0 0 1-7.456-.853c-1.905-.246-3.079-.433-3.07-.505.007-.071 1.196-.013 3.11.139 1.915.152 4.556.397 7.47.7 2.913.303 5.547.607 7.452.852 1.905.246 3.08.434 3.074.505ZM607.811 132.397c-.006.072-1.194.014-3.108-.138a323.767 323.767 0 0 1-7.471-.7 323.403 323.403 0 0 1-7.457-.853c-1.905-.245-3.078-.433-3.07-.504.008-.072 1.197-.014 3.111.138 1.915.152 4.556.397 7.47.7 2.913.304 5.547.607 7.452.852 1.905.246 3.08.434 3.073.505Z" style="fill:#263238"/><path d="M156.182 145.425c7.996 1.694 13.897 9.76 22.02 10.576 4.95.498 9.252-.755 13.892-2.606 4.64-1.85 9.96-3.428 14.442-1.2l22.773-17.013c-4.482-2.23-9.817-.833-14.457 1.018-4.639 1.851-9.384 4.17-14.333 3.673-8.123-.817-14.024-8.883-22.02-10.577l-22.317 16.13Z" style="fill:#fff"/><path d="m156.182 145.425 22.204-16.286.068-.05.085.018c3.583.75 6.966 2.884 10.386 5.181 1.724 1.143 3.494 2.333 5.424 3.337 1.925.995 4.037 1.81 6.298 2.013 2.26.22 4.592-.196 6.863-.895 2.28-.7 4.522-1.679 6.834-2.613 2.312-.936 4.74-1.78 7.315-2.16 2.553-.383 5.333-.237 7.766.979l.378.189-.339.253-.085.064-22.697 16.936-.12.09-.135-.067c-1.73-.847-3.651-1.153-5.51-1.052-1.866.083-3.67.51-5.388 1.038-1.724.527-3.347 1.214-4.973 1.821-1.625.595-3.238 1.111-4.843 1.467-3.205.726-6.365.823-9.19.217-2.813-.674-5.164-1.978-7.173-3.253-4-2.601-7.056-4.835-9.438-5.862a14.19 14.19 0 0 0-1.574-.665c-.456-.181-.854-.32-1.192-.406l-.733-.22a2.339 2.339 0 0 1-.23-.074l1.012.228c.32.06.714.186 1.185.357.474.15 1.009.36 1.599.633 2.418.989 5.527 3.201 9.53 5.754 2.01 1.251 4.343 2.516 7.093 3.156 2.753.572 5.871.463 9.02-.267 1.58-.359 3.172-.876 4.783-1.474 1.604-.605 3.244-1.308 4.988-1.847 1.74-.542 3.577-.984 5.501-1.076 1.916-.11 3.931.2 5.75 1.088l-.255.023 22.678-16.962.086-.065.04.442c-2.31-1.154-4.97-1.303-7.46-.933-2.509.37-4.901 1.195-7.198 2.122-2.304.928-4.56 1.91-6.88 2.617-2.307.707-4.71 1.133-7.053.9-2.345-.216-4.515-1.065-6.468-2.083-1.96-1.027-3.735-2.232-5.455-3.381-3.411-2.312-6.734-4.42-10.22-5.17l.154-.033-22.43 15.971Z" style="fill:#263238"/><path d="M182.269 135.21c.085.115-3.35 2.794-7.67 5.983-4.324 3.19-7.896 5.68-7.982 5.565-.085-.116 3.35-2.795 7.672-5.984 4.321-3.189 7.894-5.68 7.98-5.565ZM187.49 137.288c.086.116-3.348 2.795-7.67 5.984-4.322 3.19-7.895 5.68-7.98 5.565-.086-.116 3.348-2.795 7.671-5.984 4.321-3.189 7.895-5.68 7.98-5.565ZM192.713 139.367c.086.116-3.35 2.795-7.67 5.984-4.323 3.19-7.896 5.68-7.981 5.565-.085-.116 3.349-2.795 7.671-5.984s7.895-5.68 7.98-5.565ZM197.935 141.446c.086.116-3.349 2.795-7.67 5.984-4.323 3.19-7.895 5.68-7.98 5.565s3.348-2.795 7.67-5.984 7.895-5.68 7.98-5.565ZM216.031 137.761c.085.116-3.062 2.584-7.03 5.51-3.968 2.929-7.253 5.208-7.339 5.092-.085-.115 3.062-2.582 7.03-5.51 3.968-2.927 7.254-5.207 7.339-5.092ZM205.12 140.983c.085.116-3.063 2.583-7.03 5.51-3.968 2.929-7.254 5.208-7.339 5.092-.085-.115 3.062-2.582 7.03-5.51 3.967-2.928 7.253-5.207 7.339-5.092Z" style="fill:#263238"/><path d="M374.171 85.943c6.703 4.105 9.49 13.097 16.586 16.476 4.324 2.059 8.617 2.375 13.405 2.278 4.787-.097 10.105.268 13.456 3.689l26.013-7.412c-3.351-3.42-8.625-3.95-13.412-3.852-4.788.097-9.819.569-14.142-1.49-7.097-3.38-9.884-12.37-16.587-16.476l-25.319 6.787Z" style="fill:#fff"/><path d="m374.171 85.943 25.27-6.974.079-.022.072.044c2.994 1.822 5.395 4.806 7.777 7.957 1.206 1.574 2.438 3.204 3.875 4.716 1.434 1.502 3.088 2.906 5.07 3.807 1.97.922 4.204 1.321 6.48 1.452 2.283.133 4.626.012 7.018-.047 2.392-.06 4.857.002 7.3.514 2.425.506 4.88 1.536 6.705 3.402l.306.313-.42.12-.095.026-25.922 7.37-.14.04-.102-.104c-1.3-1.31-2.935-2.202-4.642-2.725-1.707-.538-3.47-.76-5.19-.862-1.726-.106-3.414-.04-5.078-.04-1.66-.013-3.283-.089-4.845-.302-3.126-.411-6-1.357-8.369-2.793-2.331-1.504-4.064-3.412-5.487-5.197-2.815-3.61-4.887-6.59-6.72-8.273-.437-.44-.843-.806-1.215-1.1-.355-.308-.672-.56-.95-.747l-.592-.435a2.152 2.152 0 0 1-.185-.14l.846.529c.27.156.586.394.958.698.383.286.8.646 1.25 1.079 1.88 1.657 4.008 4.635 6.842 8.199 1.431 1.763 3.16 3.628 5.444 5.08 2.316 1.382 5.156 2.303 8.232 2.69 1.54.203 3.144.27 4.792.275 1.644-.005 3.354-.08 5.102.022 1.745.098 3.543.315 5.307.865 1.761.533 3.48 1.458 4.85 2.834l-.242-.064 25.914-7.4.094-.026-.115.432c-1.73-1.77-4.076-2.764-6.44-3.259-2.38-.5-4.806-.566-7.181-.51-2.382.056-4.74.175-7.06.035-2.312-.137-4.612-.55-6.654-1.511-2.054-.941-3.75-2.394-5.204-3.926-1.456-1.543-2.69-3.19-3.89-4.769-2.368-3.162-4.72-6.104-7.627-7.895l.151.022-25.369 6.6Z" style="fill:#263238"/><path d="M401.03 85.565c.038.139-3.923 1.363-8.846 2.734-4.925 1.372-8.948 2.372-8.986 2.233-.039-.138 3.921-1.362 8.846-2.734 4.924-1.372 8.947-2.372 8.986-2.233ZM405.1 89.097c.038.139-3.923 1.363-8.847 2.734-4.925 1.372-8.947 2.372-8.986 2.233-.038-.138 3.922-1.362 8.847-2.734 4.923-1.372 8.947-2.372 8.985-2.233ZM409.169 92.629c.038.138-3.923 1.363-8.846 2.734-4.925 1.372-8.948 2.372-8.986 2.233-.039-.138 3.921-1.362 8.846-2.734 4.924-1.372 8.947-2.371 8.986-2.233ZM413.238 96.16c.039.14-3.922 1.364-8.845 2.735-4.926 1.372-8.948 2.372-8.987 2.233-.038-.138 3.922-1.362 8.847-2.734 4.923-1.372 8.947-2.372 8.985-2.233ZM430.791 98.874c.039.139-3.595 1.272-8.115 2.531-4.521 1.26-8.217 2.168-8.255 2.03-.039-.139 3.594-1.272 8.115-2.531 4.52-1.26 8.217-2.168 8.255-2.03ZM419.89 98.113c.039.139-3.595 1.272-8.115 2.53-4.521 1.26-8.217 2.169-8.255 2.03-.039-.138 3.594-1.271 8.115-2.53 4.52-1.26 8.217-2.169 8.255-2.03Z" style="fill:#263238"/><path d="M484.62 191.622c7.436 2.544 12.117 10.711 19.78 12.461 4.668 1.067 8.927.439 13.578-.7s9.921-1.942 13.938.665l23.77-12.907c-4.017-2.607-9.279-1.973-13.93-.834s-9.458 2.697-14.126 1.63c-7.663-1.75-12.344-9.917-19.781-12.461l-23.23 12.146Z" style="fill:#fff"/><path d="m484.62 191.622 23.14-12.318.072-.038.08.027c3.32 1.125 6.313 3.513 9.325 6.069 1.52 1.273 3.08 2.595 4.81 3.757 1.728 1.153 3.648 2.162 5.779 2.61 2.124.47 4.39.372 6.64.003 2.258-.368 4.518-.997 6.84-1.576 2.32-.58 4.74-1.058 7.236-1.09 2.477-.037 5.098.434 7.285 1.857l.367.238-.384.209-.086.047-23.691 12.846-.128.069-.122-.08c-1.554-.994-3.345-1.508-5.125-1.646-1.783-.152-3.551.016-5.253.291-1.707.273-3.34.706-4.965 1.068-1.623.35-3.222.63-4.793.762-3.14.281-6.151-.016-8.777-.9-2.603-.96-4.71-2.444-6.489-3.876-3.534-2.908-6.207-5.365-8.362-6.607a13.983 13.983 0 0 0-1.426-.809c-.414-.223-.777-.4-1.09-.522l-.673-.295a2.149 2.149 0 0 1-.21-.096l.94.331c.298.093.659.257 1.088.473.435.196.922.455 1.454.78 2.196 1.207 4.924 3.649 8.466 6.509 1.782 1.408 3.875 2.852 6.42 3.77 2.563.844 5.535 1.124 8.622.83 1.547-.138 3.128-.421 4.737-.776 1.603-.364 3.256-.81 4.983-1.092 1.724-.285 3.527-.465 5.368-.313 1.835.136 3.714.664 5.35 1.709l-.249-.01 23.676-12.874.086-.047-.017.447c-2.074-1.349-4.581-1.808-6.996-1.775-2.432.03-4.814.495-7.12 1.068-2.312.574-4.587 1.204-6.882 1.574-2.286.37-4.62.47-6.823-.024-2.21-.47-4.183-1.518-5.935-2.696-1.758-1.189-3.321-2.526-4.836-3.806-3.002-2.57-5.939-4.927-9.166-6.041l.153-.012-23.32 11.975Z" style="fill:#263238"/><path d="M510.749 185.395c.068.127-3.53 2.185-8.036 4.598-4.508 2.413-8.215 4.266-8.283 4.139-.068-.127 3.53-2.185 8.037-4.598 4.506-2.413 8.214-4.266 8.282-4.14ZM515.49 187.954c.069.127-3.53 2.186-8.035 4.598-4.508 2.413-8.215 4.266-8.283 4.139-.068-.127 3.53-2.185 8.037-4.598 4.506-2.412 8.214-4.266 8.282-4.139ZM520.233 190.513c.068.127-3.53 2.186-8.036 4.598-4.508 2.413-8.215 4.266-8.283 4.14-.068-.127 3.53-2.186 8.037-4.599 4.505-2.412 8.214-4.265 8.282-4.139ZM524.975 193.073c.068.126-3.53 2.185-8.037 4.598-4.507 2.413-8.215 4.266-8.282 4.139-.068-.127 3.53-2.185 8.037-4.598 4.505-2.413 8.214-4.266 8.282-4.14ZM542.697 191.892c.068.127-3.231 2.026-7.368 4.24-4.138 2.216-7.546 3.908-7.614 3.781-.068-.126 3.23-2.024 7.368-4.24 4.137-2.214 7.546-3.907 7.614-3.78ZM531.892 193.527c.068.127-3.23 2.025-7.367 4.24-4.138 2.215-7.547 3.908-7.615 3.78-.067-.126 3.23-2.024 7.369-4.24 4.136-2.214 7.545-3.907 7.613-3.78Z" style="fill:#263238"/><path d="M88.982 174.843s10.485 2.588 11.346 9.474L56.32 173.792l8.336-6.26 24.326 7.311Z" style="fill:#e0e0e0"/><path d="m26.823 172.454 41.713 12.74s9.17-10.96 20.446-10.351l-35.838-10.772c-6.005-1.805-12.53-1.515-18.17 1.223-3.072 1.49-6.07 3.747-8.151 7.16Z" style="fill:#f5f5f5"/><path d="M79.97 171.84c.034.176-3.979.358-8.323 2.483-4.372 2.075-7.013 5.099-7.129 4.963-.044-.037.548-.837 1.724-1.93 1.17-1.092 2.967-2.432 5.179-3.502 2.214-1.062 4.382-1.633 5.965-1.868 1.587-.238 2.582-.203 2.584-.145ZM73.506 169.972c.034.175-3.978.357-8.322 2.483-4.372 2.074-7.013 5.098-7.13 4.962-.043-.037.55-.837 1.724-1.93 1.17-1.091 2.968-2.432 5.18-3.501 2.214-1.063 4.381-1.633 5.965-1.868 1.587-.239 2.581-.204 2.583-.146ZM67.043 168.103c.034.175-3.978.357-8.323 2.483-4.371 2.074-7.013 5.098-7.129 4.963-.043-.038.549-.838 1.724-1.93 1.17-1.092 2.967-2.432 5.18-3.502 2.213-1.063 4.381-1.633 5.965-1.868 1.587-.239 2.581-.204 2.583-.146ZM60.58 166.234c.034.175-3.978.357-8.323 2.483-4.371 2.074-7.013 5.099-7.129 4.963-.044-.038.549-.837 1.724-1.93 1.17-1.092 2.967-2.432 5.18-3.502 2.213-1.063 4.38-1.633 5.964-1.868 1.587-.239 2.582-.203 2.584-.146ZM54.117 164.365c.034.176-3.979.357-8.323 2.483-4.371 2.074-7.013 5.099-7.129 4.963-.044-.038.548-.837 1.724-1.93 1.17-1.092 2.967-2.432 5.179-3.502 2.214-1.063 4.382-1.633 5.965-1.868 1.587-.238 2.582-.203 2.584-.146Z" style="fill:#263238"/><path d="M708.401 131.885s10.573 2.199 11.688 9.048l-44.367-8.893 8.1-6.564 24.58 6.409Z" style="fill:#e0e0e0"/><path d="m646.196 131.792 42.155 11.19s8.76-11.29 20.05-11.097l-36.212-9.442c-6.067-1.582-12.576-1.052-18.113 1.892-3.014 1.603-5.926 3.968-7.88 7.457Z" style="fill:#f5f5f5"/><path d="M699.284 129.217c.04.174-3.963.503-8.226 2.788-4.292 2.234-6.82 5.354-6.94 5.223-.046-.036.516-.857 1.65-1.992 1.13-1.135 2.876-2.54 5.047-3.691 2.173-1.144 4.319-1.794 5.892-2.087 1.577-.297 2.572-.299 2.577-.241ZM692.756 127.588c.04.174-3.963.504-8.226 2.788-4.292 2.234-6.82 5.354-6.94 5.223-.046-.036.517-.857 1.65-1.992 1.13-1.135 2.876-2.54 5.047-3.691 2.174-1.144 4.319-1.794 5.893-2.087 1.576-.297 2.572-.299 2.576-.241ZM686.228 125.959c.04.174-3.962.503-8.225 2.788-4.292 2.234-6.82 5.354-6.941 5.223-.045-.036.517-.857 1.651-1.992 1.13-1.135 2.875-2.54 5.046-3.691 2.174-1.144 4.319-1.794 5.893-2.087 1.577-.297 2.572-.299 2.576-.241ZM679.7 124.33c.04.174-3.962.503-8.225 2.788-4.292 2.234-6.82 5.354-6.941 5.223-.045-.036.517-.857 1.651-1.992 1.13-1.135 2.876-2.54 5.047-3.691 2.173-1.144 4.318-1.794 5.892-2.087 1.577-.297 2.572-.299 2.576-.241ZM673.173 122.7c.04.175-3.963.505-8.226 2.79-4.292 2.233-6.82 5.353-6.94 5.222-.046-.036.516-.857 1.65-1.992 1.13-1.135 2.876-2.54 5.047-3.691 2.173-1.144 4.318-1.794 5.892-2.087 1.577-.297 2.572-.299 2.577-.241Z" style="fill:#263238"/><path d="m354.695 142.908 16.841 2.338c3.293-1.831 4.926-4.557 4.969-7.86.043-3.304-1.325-6.455-2.852-9.385l-18.958 14.907Z" style="fill:#e0e0e0"/><path d="M368.997 144.572c-.153-.041.346-1.654.003-3.634-.31-1.985-1.3-3.352-1.169-3.44.082-.106 1.342 1.217 1.683 3.356.364 2.134-.405 3.791-.517 3.718ZM364.533 146.511c-.153-.042.346-1.655.003-3.634-.31-1.986-1.3-3.353-1.169-3.441.082-.105 1.342 1.217 1.683 3.356.364 2.134-.405 3.792-.517 3.719Z" style="fill:#263238"/><path d="m359.354 137.191-28.358 18.87c3.2 3.748 7.887 6.867 12.757 6.105 2.664-.417 5.007-1.935 7.26-3.418 7.449-4.902 14.358-9.42 21.807-14.322-5.47.912-10.826-2.357-13.466-7.235Z" style="fill:#fff"/><path d="M359.354 137.191c.042-.076.718 1.448 2.698 3.406 1.008.96 2.375 2.035 4.197 2.81 1.803.782 4.092 1.233 6.54.83l.888-.147-.75.497c-3.645 2.41-7.909 5.23-12.604 8.337l-7.363 4.852c-2.557 1.611-5.097 3.657-8.338 4.479-2.757.683-5.626.039-7.948-1.2-2.348-1.243-4.282-2.984-5.866-4.834l-.183-.212.234-.154 20.51-13.503 5.892-3.838 1.562-1.004c.353-.223.535-.333.531-.319-.003.014-.192.151-.55.402l-1.574 1.083-5.866 3.984-20.231 13.607.05-.367c1.558 1.807 3.457 3.503 5.73 4.7 2.253 1.194 4.976 1.795 7.587 1.149 3.08-.773 5.612-2.782 8.178-4.4 2.552-1.67 5.02-3.285 7.378-4.83l12.659-8.253.137.35c-2.538.394-4.892-.102-6.726-.929-1.853-.82-3.225-1.941-4.224-2.938a14.8 14.8 0 0 1-2.015-2.555c-.189-.312-.307-.559-.4-.73a2.243 2.243 0 0 1-.133-.273Z" style="fill:#263238"/><path d="M251.459 103.85s12.309-25.244 12.64-24.943c.035.031.59-.228.946.064 3.06 2.508 16.262 13.948 16.262 13.948l-22.361 17.63-7.626-4.93.139-1.768Z" style="fill:#455a64"/><path d="m310.136 115.157-.01-5.708-34.352-28.362-24.09 23.508.58 2.858 33.822 23.685 24.05-15.981z" style="fill:#ebebeb"/><path d="m254.475 107.131 20.626-19.198 35.398 28.442-23.297 15.778-32.727-25.022z" style="fill:#455a64"/><path d="m251.684 104.595 16.08-25.91 2.008-.014 4.435 3.843-16.072 16.147-6.451 5.934z" style="fill:#e0e0e0"/><path d="m284.17 133.46-32.982-24.601s-1.818-1.956.27-5.008c0 0-.022 2.712 3.017 3.28l32.727 25.022s-1.244.954-3.032 1.306Z" style="fill:#263238"/><path d="M251.877 105.548c-.009-.008.065-.103.213-.276.179-.2.397-.447.662-.746l2.485-2.694a612.271 612.271 0 0 1 8.343-8.753 447.805 447.805 0 0 1 8.537-8.567 172.94 172.94 0 0 1 2.649-2.534l.735-.673c.17-.151.265-.226.273-.218s-.069.101-.223.269l-.69.72-2.568 2.613c-2.2 2.244-5.173 5.28-8.46 8.636l-8.416 8.679-2.565 2.617-.71.7c-.165.157-.256.236-.265.227Z" style="fill:#263238"/><path d="M254.16 103.035c-.081-.053 3.34-5.53 7.642-12.232 4.303-6.704 7.856-12.094 7.938-12.042.082.053-3.338 5.529-7.641 12.233-4.302 6.702-7.856 12.094-7.938 12.041ZM275.733 81.154c.116.012-.075 1.605-.337 3.534-.27 1.934-.093 3.503-.185 3.52-.043.007-.16-.38-.226-1.029-.07-.647-.059-1.552.06-2.532.266-1.957.61-3.5.688-3.493Z" style="fill:#263238"/><path d="M705.104 222.219s15.501 19.466 15.08 19.62c-.043.016-.096.563-.52.74-3.65 1.522-19.927 7.863-19.927 7.863l-4.043-24.707 7.968-4.296 1.442.78Z" style="fill:#455a64"/><path d="m666.537 265.322 4.88 2.147 41.153-17.028-8.212-28.322-2.727-.61-36.896 18.364 1.802 25.449z" style="fill:#ebebeb"/><path d="m700.816 223.416 6.237 23.898-41.736 17.84-1.999-24.762 37.498-16.976z" style="fill:#455a64"/><path d="m704.358 222.12 14.21 22.761-.977 1.627-5.468 2.13-5.874-19.07-1.891-7.449z" style="fill:#e0e0e0"/><path d="m663.696 237.45 37.264-17.34s2.567-.73 4.144 2.109c0 0-2.305-1.043-4.288 1.197l-37.498 16.976s-.202-1.365.378-2.942Z" style="fill:#263238"/><path d="M703.448 221.916c.012-.004.056.091.131.276l.311.816 1.078 3.023a468.877 468.877 0 0 1 3.366 10.039 343.317 343.317 0 0 1 3.112 10.126c.375 1.303.669 2.36.86 3.095l.213.848c.044.195.062.299.05.302-.01.004-.052-.093-.118-.282l-.276-.828-.966-3.06-3.21-10.09-3.267-10.07-.972-3.058-.248-.838c-.053-.192-.075-.295-.064-.3Z" style="fill:#263238"/><path d="M704.47 224.708c.085-.046 3.078 4.783 6.684 10.786 3.607 6.004 6.46 10.908 6.375 10.954-.085.046-3.077-4.782-6.684-10.787-3.606-6.002-6.46-10.907-6.375-10.953ZM712.533 250.383c-.067.089-1.334-.667-2.853-1.607-1.519-.948-2.946-1.396-2.915-1.477.014-.037.403.014.99.205.587.189 1.354.539 2.133 1.006 1.54.952 2.69 1.812 2.645 1.873Z" style="fill:#263238"/><path d="M550.825 407.9h74.806v4.091h-74.806z" style="fill:#e0e0e0"/><path d="M549.518 459.25a2.524 2.524 0 0 0 2.52-2.528V269.841a2.524 2.524 0 0 0-2.52-2.527 2.524 2.524 0 0 0-2.52 2.527v186.881a2.524 2.524 0 0 0 2.52 2.528ZM626.402 459.382a2.525 2.525 0 0 0 2.52-2.528V267.747a2.525 2.525 0 0 0-2.52-2.529 2.525 2.525 0 0 0-2.521 2.529v189.107a2.525 2.525 0 0 0 2.52 2.529Z" style="fill:#e0e0e0"/><rect width="102.016" height="38.528" x="538.238" y="270.811" rx="6.009" ry="6.009" style="fill:#455a64"/><path d="m541.846 444.675-1.06-13.2 20.893-1.728-.657 13.174-7.69 5.298-6.979.554-4.507-4.098z" style="fill:#455a64"/><path d="m541.055 443.27.166 1.535s-20.463 9.128-20.091 14.71l41.206-1.18-1.2-15.873c-6.045 3.451-12.83 3.903-20.081.808Z" style="fill:#1a73e8"/><path d="m562.336 458.336-.288-3.818-39.912 2.464s-1.151 1.422-1.006 2.534l41.206-1.18Z" style="fill:#e0e0e0"/><path d="M541.98 450.486c.055.005.133-.344.086-.921a5.226 5.226 0 0 0-.68-2.118c-.436-.748-.998-1.274-1.445-1.546-.448-.276-.76-.332-.778-.274-.056.137 1.067.708 1.853 2.097.813 1.368.833 2.766.965 2.762ZM544.144 449.884c.115.014.107-1.49-.774-2.983-.867-1.505-2.082-2.099-2.115-1.973-.068.13.955.868 1.746 2.25.811 1.368 1.012 2.727 1.143 2.706ZM538.813 451.71c.11.05.439-1.15.043-2.59-.384-1.444-1.253-2.245-1.32-2.137-.096.101.553.975.894 2.279.361 1.296.253 2.421.383 2.448Z" style="fill:#fff"/><path d="M539.098 446.078c.04.036.425-.519.614-1.613.095-.541.135-1.2.124-1.923-.006-.362-.023-.74-.045-1.129-.014-.19-.013-.397-.071-.64-.056-.237-.199-.511-.458-.635-.274-.146-.6.033-.721.245a1.68 1.68 0 0 0-.242.633 6.66 6.66 0 0 0 .142 3.092c.32 1.067.75 1.584.787 1.55.063-.044-.26-.619-.483-1.644a7.276 7.276 0 0 1-.153-1.818c.015-.341.057-.697.133-1.055.06-.345.254-.626.377-.53.185.078.236.428.252.828l.07 1.109a13.03 13.03 0 0 1-.024 1.853c-.099 1.046-.368 1.638-.302 1.677Z" style="fill:#fff"/><path d="M538.806 445.945c-.007.026.065.08.225.163l.125.065-.043-.17c-.086-.342-.32-1.024-.818-1.798a7.316 7.316 0 0 0-.94-1.178 7.407 7.407 0 0 0-.62-.556 1.302 1.302 0 0 0-.422-.242.599.599 0 0 0-.57.11c-.252.202-.235.618-.145.815.082.228.198.378.294.529.205.302.425.57.65.807.45.473.92.81 1.33 1.035.829.453 1.4.49 1.406.433.018-.08-.516-.244-1.261-.751a6.432 6.432 0 0 1-1.196-1.057 6.68 6.68 0 0 1-.583-.766c-.21-.28-.32-.608-.221-.633.185-.198.727.342 1.066.642.366.35.676.715.932 1.063.513.696.808 1.31.973 1.607l.081-.105c-.172-.036-.257-.039-.263-.013Z" style="fill:#fff"/><path d="m612.923 447.381-6.942-11.277 17.828-11.032 5.4 12.035-4.444 8.213-5.966 3.665-5.876-1.604z" style="fill:#455a64"/><path d="m611.58 446.489.845 1.292s-14.083 17.428-11.215 22.232l36.172-19.77-8.28-13.597c-3.817 5.821-9.657 9.306-17.523 9.843Z" style="fill:#1a73e8"/><path d="m637.383 450.243-1.992-3.27-34.436 20.326s-.38 1.79.255 2.714l36.173-19.77Z" style="fill:#e0e0e0"/><path d="M615.683 452.497c.05-.02-.04-.367-.343-.86-.3-.49-.843-1.107-1.569-1.577-.727-.469-1.467-.681-1.988-.721-.525-.042-.829.05-.818.11.013.146 1.272.146 2.603 1.026 1.346.849 1.999 2.086 2.115 2.022ZM617.336 450.978c.109-.04-.582-1.376-2.044-2.307-1.457-.946-2.809-.923-2.781-.796-.002.147 1.245.34 2.578 1.212 1.344.85 2.14 1.97 2.247 1.891ZM613.416 455.026c.12-.006-.131-1.224-1.138-2.327-.998-1.112-2.136-1.43-2.147-1.304-.039.134.936.618 1.832 1.624.91.99 1.326 2.043 1.453 2.007Z" style="fill:#fff"/><path d="M611.112 449.88c.051.014.143-.656-.186-1.716-.16-.526-.425-1.131-.763-1.77-.17-.32-.357-.648-.553-.985-.099-.164-.193-.348-.354-.538-.158-.186-.41-.365-.697-.358-.31-.005-.52.303-.53.546-.03.246.013.47.072.674.11.386.253.75.418 1.082.33.666.734 1.206 1.113 1.608.77.805 1.388 1.07 1.404 1.023.037-.067-.512-.433-1.177-1.244a7.276 7.276 0 0 1-.961-1.55 6.344 6.344 0 0 1-.36-1.001c-.105-.335-.06-.673.094-.643.2-.015.404.274.6.622l.567.956c.35.612.63 1.175.82 1.663.387.976.416 1.625.493 1.63Z" style="fill:#fff"/><path d="M610.791 449.894c.006.026.095.041.275.042l.14.002-.115-.133c-.232-.265-.75-.766-1.546-1.229a7.322 7.322 0 0 0-1.373-.622 7.41 7.41 0 0 0-.804-.215 1.304 1.304 0 0 0-.486-.024.6.6 0 0 0-.457.357c-.133.295.07.658.24.793.177.165.349.247.503.337.32.176.638.315.945.423a5.534 5.534 0 0 0 1.655.32c.944.025 1.47-.201 1.45-.254-.021-.08-.571.017-1.465-.096a6.434 6.434 0 0 1-1.545-.399 6.688 6.688 0 0 1-.868-.417c-.314-.155-.56-.397-.484-.463.074-.262.802-.027 1.241.087.485.145.927.33 1.313.524.774.386 1.315.8 1.597.99l.025-.131c-.17.046-.247.082-.24.108Z" style="fill:#fff"/><path d="m550.236 189.331 9.37 30.688 4.658 11.636 10.384 35.741 16.902-5.215s-13.093-36.149-16.052-46.97c-2.96-10.822-12.812-31.103-12.812-31.103l-12.45 5.223Z" style="fill:#ffbf9d"/><path d="M563.6 185.805s.895-7.168.882-10.329c-.014-3.16 2.44-9.218 2.44-9.218s-2.238-.835-3.675.697c-1.438 1.532-4.108 7.836-5.115 8.085-1.007.25-3.464-1.13-3.684-1.673-.22-.544-5.86-13.296-7.303-13.345-1.444-.048-3.047 1.076-2.632 2.49.414 1.415 4.365 8.045 3.413 8.43s-6.162-7.792-7.44-7.432-2.309 1.726-1.623 3.03c.687 1.306 4.609 7.473 3.848 7.94-.76.466-4.63-6.356-5.557-6.297-.926.058-1.654 1.777-1.188 2.538.467.76 5.486 8.858 4.564 9.706-.923.849-5.057-2.705-5.833-2.853-1.014-.194-1.464 1.934.503 3.372.627.458 14.464 10.44 16.157 11.495 1.694 1.055 12.242-6.636 12.242-6.636Z" style="fill:#ffbf9d"/><path d="M545.6 182.827c-.027-.054.835-.501 2.37-.576 1.504-.08 3.728.327 5.582 1.826l.356.3-.5.178c.34-2.188 1.12-4.039 1.833-5.261.713-1.231 1.311-1.87 1.367-1.827.172.085-1.97 2.919-2.604 7.18l-.08.532-.42-.354c-.105-.088-.218-.182-.33-.278-1.715-1.387-3.768-1.838-5.201-1.87-1.456-.037-2.346.252-2.373.15Z" style="fill:#ff9a6c"/><path d="m573.29 270.41-5.78-26.995s21.306-4.027 21.289-2.698c-.018 1.329 7.142 20.36 7.142 20.36l-22.65 9.334Z" style="fill:#1a73e8"/><path d="m641.013 253.73-.022-16.813c-.011-8.5.089-20.008-2.792-27.865-4.247-11.581-19.387-18.07-31.293-17.304-10.827.696-16.739 3.366-22.134 13.408-5.396 10.04-7.06 27.772-7.411 39.172-.05 1.625-.045 3.367.815 4.69.91 1.4 2.554 2.005 4.093 2.53l22.414 7.645 13.86-1.612c5.644 2.238 11.89 2.87 17.923 1.816 1.408-.246 2.937-.67 3.783-1.896.737-1.067.765-2.47.764-3.77Z" style="fill:#263238"/><path d="M587.144 210.654c2.174-8.235 12.57-14.76 20.471-12.212l15.415 6.455c5.625 2.355 8.74 8.564 7.353 14.658l-4.514 8.971-7.996 39.395 1.236.762s-5.823 17.459-20.317 13.398c-13.022-3.648-6.67-19.109-6.67-19.114l2.238-10.326s-12.948-3.439-12.322-17.785c.312-7.135 2.691-15.053 5.106-24.202Z" style="fill:#ffbf9d"/><path d="M587.792 224.757c-.22.935.368 1.894 1.312 2.145.943.25 1.887-.304 2.107-1.239.22-.935-.367-1.895-1.31-2.145-.944-.25-1.889.305-2.109 1.24ZM587.955 218.859c.159.248 1.477-.454 3.143-.148 1.67.281 2.75 1.406 2.965 1.224.103-.08-.032-.499-.5-1.004-.46-.501-1.29-1.059-2.33-1.242-1.04-.182-1.977.062-2.544.383-.579.321-.814.675-.734.787ZM603.11 228.053c-.22.935.367 1.895 1.311 2.145s1.887-.304 2.107-1.239c.22-.934-.367-1.895-1.31-2.145-.944-.25-1.888.305-2.109 1.24ZM605.113 221.91c.159.248 1.477-.454 3.144-.147 1.668.28 2.749 1.405 2.964 1.223.104-.08-.031-.499-.499-1.003-.46-.502-1.291-1.06-2.331-1.243-1.04-.182-1.977.063-2.544.384-.579.32-.813.674-.734.786ZM597.064 233.941c.024-.082-1.103-.493-2.94-1.092-.468-.142-.904-.315-.936-.591-.06-.298.214-.662.526-1.053l1.94-2.576c.722-.933 4.42-6.287 4.556-6.85-.197-.107-2.556 2.788-5.269 6.466-.657.91-1.286 1.776-1.884 2.606-.26.391-.66.812-.523 1.432.075.31.386.592.678.723.291.14.557.203.79.265 1.87.491 3.039.753 3.062.67Z" style="fill:#263238"/><path d="M594.256 252.645s8.97 2.48 19.087-1.228c0 0-6.511 8.975-19.775 4.88l.688-3.652Z" style="fill:#ff9a6c"/><path d="M605.58 217.052c.097.636 1.79.528 3.706 1.066 1.927.486 3.415 1.441 3.734.916.144-.253-.066-.865-.637-1.535-.565-.667-1.51-1.347-2.661-1.656-1.152-.305-2.253-.17-3.006.146-.76.315-1.173.761-1.135 1.062ZM588.605 212.775c.2.604 1.67.457 3.27.89 1.617.366 2.849 1.183 3.306.742.206-.219.134-.788-.324-1.437-.45-.645-1.314-1.314-2.42-1.589-1.106-.273-2.181-.086-2.878.275-.706.36-1.035.829-.954 1.119Z" style="fill:#263238"/><path d="M630.386 224.93c.816-3.336 1.124-4.545 1.187-7.982.063-3.437-1.415-7.42-3.478-10.116-1.648-2.151-4.328-5.035-6.736-6.207-3.782-1.841-5.61-3.309-13.496-3.437-3.335-.054-3.738-.65-6.963.2l-2.266.688c.727 6.238 16.812 22.875 22.894 26.433-.113 2.219-.307 3.8-.171 6.016.059.96.255 1.968.886 2.675.794.89 2.145 1.093 3.263.714 1.12-.38 1.524-1.053 2.218-2.032 1.461-2.061 2.057-4.48 2.662-6.951Z" style="fill:#263238"/><path d="M625.972 229.3s8.697-1.52 6.683 6.9c-2.014 8.42-9.813 4.64-9.77 4.395.044-.245 3.087-11.295 3.087-11.295Z" style="fill:#ffbf9d"/><path d="M626.148 238.027c.042-.018.118.138.332.312.208.168.594.345 1.06.287.942-.111 2.008-1.343 2.41-2.85.205-.761.223-1.53.104-2.2-.102-.678-.387-1.205-.803-1.392a.735.735 0 0 0-.937.192c-.166.208-.155.39-.201.393-.028.015-.142-.185.007-.516a.956.956 0 0 1 .448-.448c.236-.115.544-.127.84-.018.62.202 1.045.94 1.176 1.676a5.267 5.267 0 0 1-.067 2.47c-.458 1.683-1.682 3.061-2.95 3.119-.612.011-1.049-.287-1.25-.547-.203-.27-.201-.47-.169-.478Z" style="fill:#ff9a6c"/><path d="M618.624 220c2.427 12.63.402 26.07-5.638 37.424 1.454-.225 2.926.146 4.39.295 1.465.15 3.094.016 4.157-1.002.929-.89 1.21-2.241 1.435-3.507a195.126 195.126 0 0 0 2.95-30.619" style="fill:#263238"/><path d="M617.376 257.72c-.016-.007.055-.247.204-.697l.675-1.96 2.566-7.167c.98-3.037 1.583-6.832 2.144-11.036.545-4.211 1.004-8.862 1.375-13.75l.112-1.56.13.238c-4.168-2.31-7.717-5.164-10.613-8.046-2.908-2.877-5.22-5.736-7.059-8.191a113.633 113.633 0 0 1-4.157-5.943c-.47-.712-.819-1.276-1.057-1.657-.235-.382-.352-.587-.338-.596.014-.01.159.177.421.541l1.133 1.605a159.043 159.043 0 0 0 4.277 5.838c1.869 2.42 4.198 5.24 7.102 8.076 2.892 2.84 6.414 5.65 10.534 7.93l.142.079-.011.16-.112 1.564c-.372 4.897-.845 9.553-1.417 13.774-.59 4.214-1.228 8.012-2.269 11.092l-2.72 7.122-.764 1.925c-.18.438-.282.665-.298.658Z" style="fill:#455a64"/><path d="M628.98 221.802c-.143-.467-.57-.803-1.03-.962-.462-.16-.959-.172-1.447-.181-2.274-.046-4.593-.086-6.768.579-1.294.23-1.107 1.433-.977 1.802.13.37.481.626.854.745.373.118.772.12 1.163.12l5.14.002c.726 0 1.483-.007 2.131-.333.649-.326 1.145-1.078.933-1.772Z" style="fill:#1a73e8"/><path d="M609.215 232.792c-.264-.542-.908-.844-1.461-1.084-.47-.082-.947-.165-1.424-.132s-.961.193-1.296.534c-.335.341-.486.883-.286 1.317.159.345.499.568.84.735a5.313 5.313 0 0 0 1.814.518c.573.056 1.21-.005 1.618-.41.428-.426.46-.935.195-1.477Z" style="fill:#ff9a6c"/><path d="m569.972 319.69-6.497 9.324c-2.456 4.639-6.867 8.475-8.349 13.511l-18.933 32.803 2.24 63.913 27.083.822 2.558-55.194 19.22-29.847-5.703 37.61c-.472 2.938 1.257 14.01 2.717 16.734l20.079 37.83 24.73-12.891-15.585-35.153 20.392-52.843-4.166-13.94c-20.417 5.563-36.281-1.547-59.786-12.679Z" style="fill:#263238"/><path d="M657.513 194.39c-.265 1.102-14.619 33.195-17.151 37.248-2.532 4.053-15.14 30.548-15.14 30.548l14.02 11.154s9.309-21.416 16.295-31.714c8.499-12.527 16.405-45.937 16.405-45.937l-14.429-1.299Z" style="fill:#ffbf9d"/><path d="M658.027 195.175s-3.984-6.026-5.374-8.864c-1.39-2.837-6.278-7.177-6.278-7.177s1.634-1.742 3.602-1.007c1.968.735 7.159 5.2 8.172 4.976 1.013-.224 2.603-2.55 2.559-3.135-.044-.585-.65-14.516.622-15.2 1.272-.684 3.207-.388 3.463 1.064.257 1.451-.341 9.147.683 9.07 1.024-.078 2.064-9.718 3.37-9.964 1.305-.245 2.834.523 2.798 1.997-.036 1.473-.814 8.74.075 8.82.889.081 1.33-7.75 2.185-8.108.856-.358 2.271.859 2.191 1.748-.08.889-.985 10.372.219 10.723 1.203.35 3.33-4.668 3.96-5.146.822-.624 2.17 1.084 1.046 3.246-.359.688-8.328 15.774-9.378 17.47-1.049 1.698-13.915-.513-13.915-.513Z" style="fill:#ffbf9d"/><path d="M672.835 184.519c.02.103-.905.24-2.193.92-1.27.663-2.91 1.979-3.83 3.982l-.173.396-.22.504-.307-.442c-2.46-3.537-5.637-5.125-5.52-5.279.03-.062.85.245 2.035 1.031 1.181.78 2.702 2.092 3.978 3.902l-.527.062.185-.427c.997-2.166 2.81-3.518 4.193-4.114 1.408-.614 2.379-.596 2.38-.535Z" style="fill:#ff9a6c"/><path d="m622.893 260.695-2.916-.046c-11.216 6.323-22.598 5.592-27.026-.499l-3.614 1.42-15.905 7.187s1.471 53.595-2.839 64.677l62.847 8.58 1.604-31.17 5.665-38.03-17.816-12.119Z" style="fill:#1a73e8"/><path d="M619.586 260.815c.345-.01 10.502-18.15 10.502-18.15l21.085 8.098-11.567 24.485-20.02-14.432Z" style="fill:#1a73e8"/><path d="M600.238 322.086c-.03.03-.534-.388-1.423-1.171-.894-.777-2.14-1.95-3.636-3.44-2.994-2.977-6.905-7.314-10.705-12.477-3.792-5.172-6.736-10.166-8.653-13.874-.96-1.854-1.694-3.376-2.156-4.445-.47-1.067-.711-1.664-.672-1.681.039-.017.354.547.891 1.581.53 1.038 1.32 2.526 2.328 4.348a129.192 129.192 0 0 0 8.772 13.725 131.089 131.089 0 0 0 10.518 12.534 159.76 159.76 0 0 0 3.484 3.563c.834.832 1.282 1.307 1.252 1.337ZM632.463 271.586c-.066.03-.515-.684-.97-1.957-.458-1.268-.865-3.115-.863-5.186.01-2.071.426-3.927.89-5.206.462-1.284.915-2.008.98-1.98.192.058-1.267 3.14-1.25 7.18-.038 4.038 1.404 7.087 1.213 7.15Z" style="fill:#263238"/><path d="M577.618 306.754c1.638 10.101 6.502 19.662 13.799 27.06 3.076 3.12 7.33 6.048 11.727 5.002-10.163-9.341-18.794-20.198-25.526-32.062Z" style="opacity:.3"/><path d="m634.112 345.03 1.14-19.09-10.483-6.207-6.096-38.203-43.426-.276s-10.89 35.746-9.215 57.583l21.263 16.185s22.532 2.41 23.712 2.223c1.179-.189 23.105-12.216 23.105-12.216Z" style="fill:#263238"/><path d="m619.88 260.433-2.738 26.296-5.117-.749s2.729-20.198 3.928-23.368c1.2-3.17 5.854-5.379 5.854-5.379l-1.927 3.2ZM593.73 256.55s-13.418 5.642-18.483 24.704l-.08 2.311 4.997.288s3.166-20.633 12.787-23.703l.78-3.6Z" style="fill:#263238"/><path d="M612.488 314.305c-.073-.01.153.454-.243 1.101-.41.65-1.533 1.093-2.964 1.335-2.894.503-7.19.387-12.435-.067-5.251-.465-11.48-1.31-18.358-2.47l-2.607-.455c-.845-.196-1.893-.193-2.348-.739-.461-.572-.184-1.533.065-2.402l.753-2.72 3.126-11.335c.53-1.905 1.152-3.868 2.598-5.063 1.448-1.202 3.471-1.247 5.32-1.162 3.788.199 7.45.398 10.928.642 3.478.243 6.783.534 9.856.898 1.501.184 3.013.55 3.881 1.622.866 1.063 1.026 2.488 1.13 3.774l.89 12.473.272 3.39.086.88c.023.198.04.299.05.298.01 0 .014-.103.011-.302l-.026-.885-.158-3.396-.698-12.488c-.1-1.3-.224-2.81-1.196-4.04-.998-1.24-2.657-1.624-4.177-1.823-3.09-.387-6.395-.697-9.881-.957-3.486-.259-7.142-.47-10.942-.677-.954-.043-1.937-.06-2.928.098-.985.153-1.991.52-2.799 1.19-1.637 1.366-2.258 3.452-2.8 5.366l-3.114 11.34-.746 2.722c-.119.444-.264.905-.313 1.404-.05.484-.006 1.072.365 1.518.37.452.912.599 1.36.693l1.336.24 2.615.444c6.894 1.134 13.14 1.936 18.414 2.347 5.266.401 9.584.455 12.514-.127 1.445-.282 2.605-.77 3.023-1.5.127-.163.157-.341.186-.492a.74.74 0 0 0 .01-.376c-.027-.202-.046-.301-.056-.299ZM625.216 324.968c-1.93.048-3.299 2.56-2.292 4.208 1.007 1.647 3.866 1.576 4.79-.12.923-1.695-.568-4.136-2.498-4.088M626.077 333.435c-1.93.048-3.298 2.56-2.291 4.207 1.007 1.648 3.865 1.576 4.789-.12.924-1.695-.568-4.136-2.498-4.087" style="fill:#455a64"/><path d="M603.635 238.136c-.078-.677-.426-1.381-1.06-1.63-.465-.184-.989-.091-1.478.013a44.24 44.24 0 0 0-4.366 1.16c-.052 1.208.951 3.11 2.004 3.705a3.372 3.372 0 0 0 3.445-.123 3.372 3.372 0 0 0 1.455-3.125Z" style="fill:#ff9a6c"/><path d="M599.45 241.714c-.002-.096.86.16 1.986-.406a3.04 3.04 0 0 0 1.398-1.565c.311-.743.244-1.666-.005-2.608l-.205-.753.26.187c-3.597.14-6.232 1.248-6.28 1.097-.023-.055.601-.4 1.71-.774a17.045 17.045 0 0 1 4.547-.84l.206-.01.054.197.213.77c.26.973.338 2.051-.056 2.919a3.295 3.295 0 0 1-1.682 1.711 3.076 3.076 0 0 1-1.587.248c-.377-.045-.567-.143-.559-.172Z" style="fill:#263238"/><path d="M492.215 458.855a2.52 2.52 0 0 0 2.52-2.521v-127.22h-5.041v127.22a2.52 2.52 0 0 0 2.52 2.52ZM683.747 458.855a2.52 2.52 0 0 0 2.52-2.521v-127.22h-5.04v127.22a2.52 2.52 0 0 0 2.52 2.52Z" style="fill:#e0e0e0"/><path d="M483.454 317.849h208.284v11.897H483.454zM489.359 333.592h198.185v37.572H489.359z" style="fill:#455a64"/><path d="M536.415 317.83h-57.662c-.972-3.588-1.069-6.95 0-10.01h57.662c1.49 3.371 1.16 7.369 0 10.01Z" style="fill:#1a73e8"/><path d="m495.841 310.957-.628 3.14h-.225l.534-2.67-1.736 2.253h-.112l-.888-2.284-.539 2.701h-.224l.628-3.14h.188l.938 2.427 1.862-2.427h.202ZM498.788 311.755l-.467 2.342h-.215l.09-.457c-.225.296-.57.475-.987.475-.606 0-1.01-.372-1.01-.973 0-.808.556-1.404 1.324-1.404.489 0 .812.22.924.6l.116-.583h.225Zm-.435.97c0-.498-.305-.786-.83-.786-.633 0-1.1.503-1.1 1.19 0 .497.306.784.83.784.633 0 1.1-.498 1.1-1.189ZM499.671 313.42a.781.781 0 0 0-.018.166c0 .22.117.336.36.336.138 0 .273-.045.38-.13l.068.166a.806.806 0 0 1-.503.157c-.336 0-.533-.183-.533-.498a.85.85 0 0 1 .017-.18l.301-1.489h-.435l.036-.193h.435l.103-.511h.224l-.103.511h.745l-.036.193h-.745l-.296 1.472ZM503.444 312.487c0 .08-.009.166-.027.255l-.27 1.355h-.223l.269-1.355a.996.996 0 0 0 .022-.224c0-.363-.22-.578-.66-.578-.533 0-.91.3-1.027.883l-.256 1.274h-.224l.664-3.329h.224l-.282 1.423c.229-.315.565-.453.96-.453.538 0 .83.287.83.749ZM504.264 312.976c-.004.049-.009.098-.009.148 0 .507.296.79.866.79.332 0 .62-.117.803-.315l.103.158c-.206.224-.551.358-.924.358-.664 0-1.067-.368-1.067-.982 0-.8.542-1.395 1.278-1.395.61 0 .996.367.996.977 0 .09-.013.185-.027.26h-2.019Zm.027-.175h1.804c.004-.04.004-.077.004-.117 0-.484-.323-.754-.79-.754-.515 0-.906.35-1.018.871ZM510.904 312.478c0 .085-.01.17-.027.264l-.274 1.355h-.224l.274-1.355c.018-.08.022-.157.022-.228 0-.36-.21-.575-.633-.575-.502 0-.874.283-.982.83l-.27 1.328h-.224l.274-1.355c.018-.08.022-.157.022-.228 0-.36-.21-.575-.632-.575-.516 0-.88.305-.996.884l-.256 1.274h-.224l.466-2.342h.22l-.09.44c.225-.319.557-.457.938-.457.435 0 .7.197.781.524.233-.35.592-.524 1.018-.524.534 0 .817.282.817.74ZM514.084 311.755l-.467 2.342h-.215l.09-.457c-.224.296-.57.475-.987.475-.606 0-1.01-.372-1.01-.973 0-.808.557-1.404 1.324-1.404.489 0 .812.22.924.6l.117-.583h.224Zm-.435.97c0-.498-.305-.786-.83-.786-.633 0-1.1.503-1.1 1.19 0 .497.306.784.83.784.633 0 1.1-.498 1.1-1.189ZM514.967 313.42a.775.775 0 0 0-.018.166c0 .22.117.336.36.336a.613.613 0 0 0 .38-.13l.068.166a.806.806 0 0 1-.503.157c-.336 0-.533-.183-.533-.498a.85.85 0 0 1 .017-.18l.301-1.489h-.435l.036-.193h.435l.103-.511h.224l-.103.511h.745l-.036.193h-.745l-.296 1.472ZM516.81 311.755h.225l-.467 2.342h-.224l.467-2.342Zm.077-.736c0-.107.085-.197.198-.197a.17.17 0 0 1 .174.166.195.195 0 0 1-.201.197.167.167 0 0 1-.17-.166ZM517.48 313.142c0-.813.56-1.404 1.345-1.404.417 0 .723.147.888.439l-.184.112c-.143-.238-.385-.35-.717-.35-.642 0-1.109.503-1.109 1.19 0 .497.306.784.848.784.31 0 .597-.12.777-.34l.157.125c-.207.265-.566.417-.951.417-.651 0-1.055-.381-1.055-.973ZM522.517 311.755l-.467 2.342h-.215l.09-.457c-.224.296-.57.475-.987.475-.606 0-1.01-.372-1.01-.973 0-.808.557-1.404 1.324-1.404.489 0 .812.22.924.6l.117-.583h.224Zm-.435.97c0-.498-.305-.786-.83-.786-.633 0-1.1.503-1.1 1.19 0 .497.306.784.83.784.633 0 1.1-.498 1.1-1.189ZM523.656 310.769h.224l-.664 3.328h-.224l.664-3.328ZM481.167 311.925l3.14.628v.23l-2.934-.588v.767l-.206-.04v-.997Z" style="fill:#f5f5f5"/><path d="M488.566 307.82c.07.024-.634 2.29-1.572 5.062-.94 2.772-1.757 5-1.827 4.975-.07-.023.635-2.289 1.573-5.061.939-2.771 1.757-4.999 1.826-4.975ZM490.916 307.82c.07.024-.635 2.29-1.573 5.062-.939 2.772-1.756 5-1.826 4.975-.07-.023.634-2.289 1.573-5.061.938-2.771 1.756-4.999 1.826-4.975ZM529.433 307.82c.07.024-.635 2.29-1.573 5.062-.94 2.772-1.757 5-1.827 4.975-.07-.023.635-2.289 1.574-5.061.938-2.771 1.756-4.999 1.826-4.975ZM531.782 307.82c.07.024-.634 2.29-1.573 5.062-.939 2.772-1.756 5-1.826 4.975-.07-.023.634-2.289 1.573-5.061.939-2.771 1.756-4.999 1.826-4.975Z" style="fill:#fff"/><path d="M528.251 307.93h-57.662c-.972-2.556-1.069-4.95 0-7.13h57.662c1.49 2.4 1.16 5.248 0 7.13Z" style="fill:#455a64"/><path d="M489.99 302.797h.612v2.148h1.327v.499h-1.94v-2.647ZM494.055 304.283v1.161h-.552v-.254c-.11.186-.322.284-.62.284-.477 0-.76-.265-.76-.616 0-.36.253-.61.873-.61h.47c0-.252-.152-.4-.47-.4a.978.978 0 0 0-.586.19l-.212-.413c.223-.159.552-.246.877-.246.62 0 .98.288.98.904Zm-.59.518v-.208h-.405c-.276 0-.363.102-.363.238 0 .148.125.246.333.246.197 0 .367-.09.435-.276ZM496.668 304.28v1.164h-.59v-1.074c0-.33-.15-.48-.412-.48-.284 0-.488.173-.488.548v1.006h-.59v-2.035h.564v.239c.159-.174.397-.27.673-.27.48 0 .843.281.843.901ZM499.324 303.41v1.694c0 .756-.409 1.104-1.143 1.104-.385 0-.76-.095-.998-.28l.235-.423c.174.14.457.23.718.23.416 0 .598-.189.598-.556v-.087c-.156.17-.379.254-.643.254-.564 0-1.018-.39-1.018-.983 0-.594.454-.984 1.018-.984.283 0 .518.095.673.291v-.26h.56Zm-.583.953c0-.3-.223-.5-.533-.5-.31 0-.537.2-.537.5 0 .298.227.499.537.499.31 0 .533-.2.533-.5ZM501.922 303.41v2.034h-.56v-.242a.823.823 0 0 1-.632.272c-.51 0-.87-.287-.87-.915v-1.15h.59v1.063c0 .34.152.492.413.492.272 0 .469-.174.469-.549v-1.006h.59ZM504.27 304.283v1.161h-.551v-.254c-.11.186-.322.284-.62.284-.477 0-.76-.265-.76-.616 0-.36.253-.61.873-.61h.469c0-.252-.152-.4-.47-.4a.978.978 0 0 0-.585.19l-.212-.413c.223-.159.552-.246.877-.246.62 0 .98.288.98.904Zm-.59.518v-.208h-.404c-.276 0-.363.102-.363.238 0 .148.125.246.333.246.197 0 .367-.09.435-.276ZM506.926 303.41v1.694c0 .756-.409 1.104-1.143 1.104-.385 0-.76-.095-.998-.28l.235-.423c.174.14.457.23.718.23.416 0 .598-.189.598-.556v-.087c-.155.17-.378.254-.643.254-.564 0-1.017-.39-1.017-.983 0-.594.453-.984 1.017-.984.283 0 .518.095.673.291v-.26h.56Zm-.583.953c0-.3-.223-.5-.533-.5-.31 0-.537.2-.537.5 0 .298.227.499.537.499.31 0 .533-.2.533-.5ZM509.456 304.593h-1.539c.057.254.272.409.582.409a.69.69 0 0 0 .511-.197l.314.34c-.19.216-.473.33-.84.33-.703 0-1.16-.444-1.16-1.048 0-.61.464-1.048 1.085-1.048.597 0 1.058.4 1.058 1.055 0 .046-.007.11-.01.16Zm-1.547-.344h1.002a.483.483 0 0 0-.499-.424.481.481 0 0 0-.503.424ZM474.49 304.275h2.647v.613h-2.155v.529h-.492v-1.142Z" style="fill:#f5f5f5"/><path d="m478.481 300.8 2.734 7.13h3.588l-2.278-7.13h-4.044zM513.886 300.8l2.734 7.13h3.588l-2.278-7.13h-4.044z" style="fill:#263238"/><path d="M346.885 412.947h74.806v4.153h-74.806z" style="fill:#e0e0e0"/><path d="M345.578 461.662a2.52 2.52 0 0 0 2.52-2.521V272.728a2.52 2.52 0 1 0-5.042 0V459.14a2.52 2.52 0 0 0 2.522 2.52ZM422.461 461.706a2.52 2.52 0 0 0 2.521-2.521V270.6a2.52 2.52 0 0 0-5.042 0v188.585a2.52 2.52 0 0 0 2.521 2.52Z" style="fill:#e0e0e0"/><rect width="102.016" height="39.118" x="333.012" y="275.899" rx="4.943" ry="4.943" style="fill:#455a64"/><path d="M374.062 363.654c-1.217 1.71 20.366 22.452 20.366 22.452-6.903 5.976-7.42 18.87-11.245 33.273-3.264 12.295-6.665 22.942-6.251 23.265l16.07 5.997s20.22-41.105 26.417-58.008c.33-.903.81-19.424-4.645-29.917s-27.282-15.949-40.712 2.938ZM343.224 345.046c-.991.466-33.713 26.629-31.397 37.251s34.702 58.525 34.702 58.525l14.877-9.61s-15.25-41.9-19.37-46.109c-2.173-2.221 30.92-19.986 30.92-19.986l-29.732-20.07Z" style="fill:#263238"/><path d="m351.558 332.492-1.012 6.09-18.183 16.053 12.292 27.356 28.301-15.448 13.466 11.662s6.435-11.153 18.425-11.745c11.99-.592 13.384 5.111 13.384 5.111l-1.393-17.908-1.312-18.436-63.968-2.735Z" style="fill:#263238"/><path d="m346.704 441.153-9.074-13.783 18.035-11.225 7.05 13.503-4.035 8.669-5.872 4.112-6.104-1.276z" style="fill:#455a64"/><path d="m345.276 440.324.944 1.268s-13.32 18.68-10.093 23.414l35.751-22.437-9.3-13.385c-3.543 6.185-9.297 10.106-17.302 11.14Z" style="fill:#1a73e8"/><path d="m371.879 442.57-2.237-3.22-33.943 22.897s-.277 1.852.428 2.758l35.752-22.436Z" style="fill:#e0e0e0"/><path d="M349.84 446.212c.05-.025-.063-.373-.404-.858-.337-.484-.93-1.08-1.7-1.516-.772-.434-1.542-.606-2.077-.614-.539-.011-.844.101-.83.163.023.149 1.31.07 2.725.888 1.427.785 2.171 2.009 2.286 1.937ZM351.436 444.557c.109-.048-.68-1.37-2.232-2.232-1.547-.877-2.927-.77-2.891-.642.007.15 1.293.27 2.71 1.08 1.426.785 2.308 1.88 2.413 1.794ZM347.68 448.936c.122-.014-.21-1.243-1.307-2.308-1.089-1.076-2.272-1.33-2.275-1.2-.032.139.994.573 1.972 1.546.992.956 1.481 2.006 1.61 1.962Z" style="fill:#fff"/><path d="M345.006 443.818c.054.011.106-.679-.295-1.742-.197-.528-.504-1.13-.89-1.762-.192-.316-.404-.64-.625-.973-.11-.16-.218-.344-.395-.528-.172-.18-.44-.348-.734-.323-.317.014-.512.342-.51.591-.014.253.044.479.117.684a6.82 6.82 0 0 0 1.73 2.655c.837.775 1.485 1.009 1.499.96.034-.072-.55-.412-1.28-1.2a7.45 7.45 0 0 1-1.078-1.525 6.495 6.495 0 0 1-.43-1c-.127-.337-.102-.684.057-.663.204-.028.43.254.652.598l.638.942c.395.604.716 1.163.94 1.65.456.973.526 1.635.604 1.636Z" style="fill:#fff"/><path d="M344.68 443.852c.008.027.099.036.283.027l.144-.008-.126-.128c-.254-.257-.814-.736-1.656-1.16a7.486 7.486 0 0 0-1.441-.552 7.594 7.594 0 0 0-.835-.17 1.337 1.337 0 0 0-.499.006.613.613 0 0 0-.445.393c-.118.31.112.667.295.795.19.158.371.23.534.314.337.16.672.282.993.374a5.665 5.665 0 0 0 1.71.224c.967-.032 1.49-.296 1.467-.349-.027-.08-.583.053-1.504-.008a6.592 6.592 0 0 1-1.604-.312 6.843 6.843 0 0 1-.912-.373c-.33-.138-.598-.37-.524-.443.06-.272.82-.077 1.274.013.505.118.968.28 1.374.454.815.347 1.394.737 1.694.913l.017-.136c-.17.058-.247.1-.239.126Z" style="fill:#fff"/><path d="m396.928 442.616 5.06-12.579-19.3-8.806-3.97 13.825 5.902 7.523 6.654 2.669 5.654-2.632z" style="fill:#455a64"/><path d="m398.13 441.484-.63 1.45s17.22 15.159 15.154 20.503l-39.918-13.714 6.01-15.15c4.858 5.216 11.353 7.726 19.384 6.91Z" style="fill:#1a73e8"/><path d="m372.735 449.724 1.446-3.644 38.262 14.573s.692 1.74.211 2.784l-39.919-13.713Z" style="fill:#e0e0e0"/><path d="M395.025 448.255c-.054-.012-.024-.377.198-.927.218-.547.66-1.263 1.31-1.863.654-.598 1.364-.94 1.883-1.07.523-.133.845-.093.845-.03.012.15-1.259.366-2.45 1.484-1.212 1.09-1.658 2.45-1.786 2.406ZM393.094 447.007c-.117-.021.35-1.488 1.666-2.68 1.306-1.206 2.674-1.417 2.669-1.284.027.148-1.198.558-2.393 1.668-1.21 1.09-1.82 2.357-1.942 2.296ZM397.749 450.417c-.123.014-.079-1.258.747-2.545.815-1.295 1.91-1.813 1.942-1.687.062.129-.838.786-1.569 1.955-.748 1.157-.985 2.29-1.12 2.277Z" style="fill:#fff"/><path d="M399.187 444.825c-.05.023-.258-.637-.109-1.764.072-.558.234-1.214.465-1.918.116-.351.248-.715.389-1.089.07-.182.133-.384.264-.604.126-.215.35-.44.64-.482.313-.059.578.216.631.46.073.243.067.476.043.692a6.82 6.82 0 0 1-1.081 2.979c-.638.945-1.217 1.32-1.241 1.275-.049-.061.442-.525.973-1.459a7.455 7.455 0 0 0 .703-1.73c.09-.338.157-.7.192-1.072.046-.356-.057-.69-.207-.632-.205.019-.361.345-.499.73l-.407 1.063a13.342 13.342 0 0 0-.54 1.82c-.222 1.052-.14 1.713-.216 1.73Z" style="fill:#fff"/><path d="M399.513 444.784c-.002.028-.088.058-.27.09l-.142.026.094-.154c.188-.307.625-.902 1.348-1.507.36-.302.79-.603 1.278-.865a7.6 7.6 0 0 1 .775-.355c.137-.052.299-.11.486-.108.192.003.394.08.523.281.186.275.043.676-.106.842-.15.197-.309.309-.449.427-.292.233-.59.428-.881.59a5.663 5.663 0 0 1-1.615.607c-.949.19-1.518.052-1.507-.005.007-.084.58-.081 1.462-.35.44-.135.957-.344 1.49-.669.267-.162.539-.351.805-.57.29-.211.497-.498.408-.552-.12-.25-.814.112-1.237.303-.464.23-.88.493-1.235.755-.714.523-1.19 1.035-1.441 1.274l-.048-.128c.18.018.263.04.262.068Z" style="fill:#fff"/><path d="M392.215 195.117c-3.295 2.516-4.697 7.244-3.308 11.15 1.39 3.905 5.464 6.684 9.607 6.554 3.445-.109 7.09-2.81 6.802-6.244.544 3.147 2.719 6.059 5.734 7.112 3.015 1.052 6.747-.034 8.433-2.746 1.685-2.713.806-6.804-2.013-8.305 3.551.247 7.242-1.135 9.55-3.845 2.308-2.71 3.065-6.736 1.646-10-1.419-3.266-5.064-5.495-8.592-5.015 1.435-4.386-1.005-9.676-5.274-11.43-4.269-1.755-9.724.288-11.789 4.416-2.402-3.434-7.323-4.832-11.172-3.176-3.848 1.657-6.215 6.193-5.372 10.297-3.067 1.587-4.692 5.52-3.64 8.808s4.656 5.549 8.075 5.062" style="fill:#263238"/><path d="M404.953 207.255c1.148-4.614.262-5.689-2.215-8.219-2.614-2.669-6.317-2.832-8.507-1.889-.496-3.6-.514-6.164-3.868-7.952-3.543-1.89-5.138-1.475-9.103-.818-2.92-1.84-6.645-2.612-10.132-2.099-3.487.513-6.693 2.304-8.723 4.872-4.471-.122-8.838 2.405-10.522 6.086-.789 1.726-1.056 3.694-2.34 5.157-.929 1.059-1.772 2.135-2.155 3.455-.708 2.44-.446 3.594.535 6.198.68 1.802 2.112 4.387 1.036 5.987-4.176 6.209 1.99 13.19 4.057 13.718l36.284 12.578c2.275 2.12 6.011 2.856 9.016 1.778 3.004-1.079 5.088-3.905 5.027-6.82 4.869-2.7 6.995-8.737 4.768-13.536 4.383-3.739 4.115-12.364-3.158-18.496Z" style="fill:#263238"/><path d="M354.012 212.794c.714-8.736 10.067-17.227 18.534-16.073l16.786 3.753c6.124 1.37 10.403 7.099 10.099 13.524l-2.951 9.906-.982 41.361 1.39.549s-2.745 18.742-18.165 17.247c-13.852-1.342-10.212-18.156-10.212-18.161l.401-10.867s-13.742-1.144-15.7-15.794c-.973-7.285.006-15.738.8-25.445Z" style="fill:#ae7461"/><path d="M356.896 226.399c-.053.987.715 1.852 1.718 1.935 1 .083 1.856-.648 1.91-1.636.054-.987-.714-1.853-1.714-1.936-1.003-.083-1.86.65-1.914 1.637ZM356.316 220.961c.205.222 1.415-.727 3.158-.718 1.742-.016 3.04.927 3.225.704.09-.099-.122-.5-.687-.926-.557-.425-1.5-.84-2.587-.838-1.086.004-1.991.421-2.508.848-.528.43-.702.83-.6.93ZM373.189 226.894c-.054.987.715 1.852 1.717 1.935 1.001.082 1.857-.649 1.911-1.636.054-.987-.715-1.853-1.715-1.936-1.002-.083-1.859.65-1.913 1.637ZM374.253 220.952c.205.222 1.415-.727 3.158-.718 1.742-.017 3.04.927 3.225.703.09-.098-.122-.5-.687-.926-.557-.425-1.5-.84-2.587-.837-1.085.003-1.991.42-2.508.848-.528.43-.702.83-.6.93ZM368.271 234.597c.01-.088-1.206-.3-3.176-.575-.5-.06-.972-.157-1.054-.43-.116-.291.096-.71.342-1.162l1.5-2.96c.563-1.077 3.342-7.17 3.378-7.766-.219-.072-2.086 3.287-4.17 7.505-.502 1.04-.982 2.032-1.438 2.981-.193.443-.522.942-.271 1.545.132.301.498.53.818.61.32.09.6.105.848.126 1.984.16 3.215.213 3.223.126Z" style="fill:#263238"/><path d="M368.807 254.055s9.538.893 19.117-4.694c0 0-4.974 10.271-19.154 8.52l.037-3.826Z" style="fill:#6f4439"/><path d="M374.398 213.2c.213.628 1.908.211 3.947.41 2.04.145 3.72.844 3.95.253.1-.282-.225-.863-.924-1.439-.693-.574-1.773-1.092-2.996-1.197-1.222-.101-2.313.234-3.02.691-.712.457-1.05.983-.957 1.282ZM356.423 211.926c.31.576 1.773.162 3.473.31 1.705.08 3.1.685 3.484.155.17-.259-.007-.822-.588-1.396-.572-.573-1.569-1.094-2.739-1.174-1.17-.077-2.226.308-2.866.799-.65.492-.9 1.027-.764 1.306Z" style="fill:#263238"/><path d="M396.01 224.624s9.251-3.067 8.732 5.828c-.519 8.896-9.104 6.476-9.104 6.22 0-.257.372-12.048.372-12.048Z" style="fill:#ae7461"/><path d="M398.48 233.48c.039-.026.144.118.392.255.241.134.664.243 1.125.1.936-.283 1.793-1.724 1.928-3.324a5.262 5.262 0 0 0-.293-2.247c-.226-.669-.61-1.15-1.065-1.266a.757.757 0 0 0-.915.365c-.13.24-.086.422-.132.434-.026.02-.178-.161-.087-.524a.984.984 0 0 1 .373-.535c.219-.16.53-.227.848-.17.665.092 1.23.764 1.495 1.486.303.726.456 1.607.379 2.514-.16 1.789-1.151 3.406-2.425 3.693-.618.123-1.115-.1-1.366-.328-.255-.237-.289-.44-.258-.454Z" style="fill:#6f4439"/><g style="opacity:.4"><path d="M380.85 231.42c-.366-.502-1.073-.692-1.677-.835-.492.001-.99.004-1.466.123-.477.12-.94.37-1.217.776-.278.406-.332.983-.052 1.386.223.32.608.485.983.593.626.18 1.284.247 1.933.196.59-.046 1.226-.223 1.566-.708.356-.508.295-1.03-.07-1.531Z" style="fill:#6f4439"/></g><g style="opacity:.4"><path d="M359.607 231.063c-.366-.502-1.073-.692-1.677-.835-.492.002-.99.004-1.467.123-.477.12-.939.37-1.216.776-.278.406-.333.983-.052 1.386.223.32.608.486.983.593a5.47 5.47 0 0 0 1.933.197c.59-.047 1.225-.224 1.565-.709.357-.508.296-1.03-.07-1.531Z" style="fill:#6f4439"/></g><path d="M402.007 213.03c-.002-2.401-.995-4.727-2.443-6.642-1.448-1.914-2.25-5.771-4.214-7.152-4.222-2.967-10.038-2.986-15.102-3.977-5.064-.992-12.96-3.786-17.598-1.525l-11.544 13.288c.537 2.238 4.01 3.378 5.371 2.394 1.362-.984 2.066-2.801 1.72-4.446 2.656 1.233 7.774-.375 8.69-3.155 2.69 3.534 6.635 4.586 10.387 2.209-.033 2.373 1.25 4.722 3.264 5.976 2.015 1.254 4.689 1.369 6.803.292-1.123 1.784-1.857 3.946-1.396 6.003.461 2.057 2.411 3.856 4.505 3.605-1.1 1.233-2.014 2.68-2.354 4.297-.34 1.617-.04 3.419 1.042 4.668s3.003 1.793 4.481 1.054c1.194-.596 1.896-1.841 2.528-3.016l3.066-5.698c1.38-2.564 2.796-5.264 2.794-8.176Z" style="fill:#263238"/><path d="M408.896 212.329c-.046.013-.161-.576-.659-1.513a7.38 7.38 0 0 0-3.138-3.077l-.127-.064.04-.139c.534-1.834.432-4.335-.885-6.565-1.261-2.238-3.963-3.91-6.956-3.939a8.212 8.212 0 0 0-2.644.4l-.364.12.043-.38c.294-2.608-.735-5.098-2.246-6.716-1.515-1.663-3.514-2.388-5.166-2.56a8.96 8.96 0 0 0-3.903.436c-.882.31-1.326.586-1.348.547-.008-.014.098-.09.308-.223.209-.136.536-.31.977-.49.874-.362 2.258-.739 3.998-.596 1.713.133 3.832.854 5.452 2.589 1.609 1.684 2.717 4.292 2.414 7.069l-.32-.26a8.63 8.63 0 0 1 2.806-.43c3.163.028 6.03 1.822 7.34 4.204 1.366 2.366 1.426 4.987.824 6.893l-.086-.202a7.311 7.311 0 0 1 3.15 3.297c.232.492.353.896.424 1.17.062.278.081.425.066.429Z" style="fill:#455a64"/><path d="m368.77 238.402 6.047-2.89c.17-.081.367-.163.538-.084.117.054.19.172.25.286.69 1.3.58 2.983-.273 4.182-.853 1.2-2.183 1.656-3.637 1.433-1.454-.224-2.472-1.528-2.925-2.927Z" style="fill:#6f4439"/><path d="M305.205 217.934s6.884 33.43 9.855 38.562 36.044 25.346 36.044 25.346l10.875-21.918-30.461-13.946-15.315-33.325-10.998 5.281Z" style="fill:#ae7461"/><path d="M300.424 207.16c-.193-.256-2.578-3.177-2.343-4.457.234-1.28 1.677-1.763 1.677-1.763s-.163-1.684.67-2.711c.832-1.027 2.502-1.295 2.502-1.295l.61-1.104c.89-1.615 2.067-1.555 2.067-1.555s1.54.32 2.738-.34c1.2-.657 4.475 1.913 6.159 3.072 1.783 1.227 3.956 2.677 3.608 5.884-.467 4.301-1.909 9.762-1.909 9.762l-9.478 6.22s-1.989-.51-4.014-4.003c-2.025-3.493-2.287-7.71-2.287-7.71Z" style="fill:#ae7461"/><path d="M299.758 200.94c.047-.044.665.542 1.625 1.526.96.983 2.264 2.363 3.681 3.907l.524.572c.054.066.062.052.153.184a.615.615 0 0 1 .076.29.89.89 0 0 1-.135.472c-.317.501-.75.756-1.145 1.006-.427.267-.956.33-1.38.24a3.299 3.299 0 0 1-1.095-.438 6.096 6.096 0 0 1-1.28-1.05c-.265-.285-.382-.467-.358-.489.054-.06.63.602 1.8 1.25.57.298 1.397.58 2.088.12.362-.234.764-.514.97-.863a.45.45 0 0 0 .073-.235c-.01-.081.002-.051-.114-.177l-.525-.57a183.89 183.89 0 0 1-3.577-3.997c-.897-1.04-1.429-1.704-1.381-1.748Z" style="fill:#ff9a6c"/><path d="M302.93 196.934c.053-.035.498.521 1.18 1.453.68.933 1.597 2.24 2.592 3.71l-.028-.034.136.146c.616.705 1.097 1.495 1.255 2.335.173.851-.194 1.663-.681 2.072-.492.42-1 .547-1.332.605-.339.053-.53.025-.531-.005-.002-.035.179-.068.488-.172.302-.105.755-.279 1.148-.669.387-.386.649-1.04.485-1.75-.153-.711-.606-1.45-1.18-2.104l-.12-.129-.018-.02-.01-.014a135.378 135.378 0 0 1-2.475-3.788c-.611-.98-.961-1.6-.909-1.636Z" style="fill:#ff9a6c"/><path d="M305.607 194.275c.065-.023.478.965 1.091 2.574l-.037-.061c1.061 1.056 2.472 2.499 4.001 4.1l.985 1.036.07.074-.006.093a4.2 4.2 0 0 1-.369 1.498c-.206.456-.552.862-.993 1.07-.425.23-.957.191-1.32.028-.38-.153-.672-.377-.92-.588a6.286 6.286 0 0 1-1.014-1.129c-.203-.29-.288-.465-.265-.482.056-.047.498.603 1.47 1.375.468.35 1.196.811 1.87.432.677-.337 1.022-1.293 1.08-2.218l.064.166-.99-1.031a237.997 237.997 0 0 1-3.913-4.186l-.028-.03-.01-.032c-.533-1.638-.83-2.666-.766-2.689Z" style="fill:#ff9a6c"/><path d="m296.825 227.345-4.028.711s-6.117-3.787-10.566-10.851c-4.135-6.564-7.9-15.754-7.9-15.754l29.792-36.631 11.009 17.287-18.307 45.238Z" style="fill:#455a64"/><path d="m320.885 190.095-10.29-25.156-3.602-.083-30.552 37.934s5.487 16.787 16.716 24.15l2.712-.459 25.016-36.386Z" style="fill:#fff"/><path d="m296.825 227.345 25.728-37.16s-9.782-21.812-8.427-27.031L282.15 204.87s-1.148 8.356 14.675 22.475Z" style="fill:#455a64"/><path d="M308.131 165.188c.031.024-.358.572-1.088 1.54l-3.134 4.072a1510.468 1510.468 0 0 1-10.508 13.297 1511.26 1511.26 0 0 1-10.64 13.195l-3.275 3.958c-.783.927-1.23 1.428-1.261 1.403-.031-.024.358-.572 1.088-1.541l3.134-4.07c2.666-3.423 6.38-8.126 10.51-13.3 4.128-5.172 7.89-9.835 10.637-13.193l3.275-3.958c.784-.927 1.231-1.428 1.262-1.403ZM310.173 165.26c.031.025-.358.573-1.088 1.542l-3.134 4.07a1510.817 1510.817 0 0 1-10.507 13.298 1508 1508 0 0 1-10.64 13.195l-3.275 3.958c-.784.927-1.231 1.428-1.262 1.403-.03-.024.358-.572 1.088-1.541l3.134-4.07c2.666-3.423 6.38-8.126 10.51-13.3 4.128-5.172 7.891-9.835 10.637-13.193l3.276-3.958c.783-.927 1.23-1.428 1.261-1.403Z" style="fill:#263238"/><path d="M316.203 212.653s2.007-9.487 1.91-9.762c-.597-1.676-5.553-5.32-7.138-6.781-2.693-2.484-3.828-2.744-3.828-2.744s-1.958 2.156.319 4.722c2.277 2.566 4.087 4.092 4.087 4.092l-.646 3.264s-5.8 4.582-2.726 10.687M449.355 192.596l-9.37 30.688-4.659 11.636-12.179 32.741-16.601-5.749s14.587-32.615 17.546-43.437c2.96-10.822 12.813-31.103 12.813-31.103l12.45 5.224Z" style="fill:#ae7461"/><path d="M435.991 189.07s-.896-7.17-.882-10.33c.013-3.16-2.44-9.217-2.44-9.217s2.237-.835 3.675.696c1.437 1.532 4.107 7.836 5.114 8.086 1.007.249 3.465-1.13 3.685-1.674.22-.543 5.859-13.296 7.303-13.344 1.444-.049 3.046 1.075 2.632 2.49-.415 1.415-4.366 8.045-3.414 8.43.952.386 6.162-7.792 7.441-7.433 1.28.36 2.308 1.727 1.622 3.031-.687 1.305-4.608 7.472-3.848 7.939.761.466 4.631-6.355 5.557-6.297.926.058 1.654 1.778 1.188 2.538-.466.761-5.486 8.858-4.563 9.707.922.848 5.056-2.705 5.832-2.854 1.014-.194 1.464 1.935-.503 3.372-.626.458-14.463 10.44-16.157 11.495-1.693 1.055-12.242-6.636-12.242-6.636Z" style="fill:#ae7461"/><path d="M453.99 186.092c.027-.055-.835-.502-2.37-.577-1.503-.08-3.728.327-5.582 1.826l-.356.301.5.178c-.34-2.188-1.12-4.04-1.833-5.262-.712-1.23-1.311-1.87-1.366-1.827-.173.085 1.97 2.92 2.603 7.18l.08.533.421-.355.33-.277c1.714-1.387 3.767-1.838 5.2-1.87 1.456-.037 2.346.251 2.373.15Z" style="fill:#6f4439"/><path d="m417.512 285.051.656 63.98s-16.097 9.75-38.265 6.769c-22.167-2.981-30.025-6.155-30.025-6.155s.514-40.054.292-52.178.835-39.494.835-39.494l17.765-.092s2.94 9.78 11.886 9.78c10.995 0 15.034-10.486 15.034-10.486l5.958-.343 15.864 28.219ZM349.878 310.17l2.254-32.73" style="fill:#1a73e8"/><path d="M360.464 258.156s-4.889-1.745-7.906-3.014c-3.166-1.332-17.512-8.232-17.512-8.232l-11.472 21.444 26.594 16.787 10.296-26.985ZM401.648 256.832s2.203-3.178 5.482-1.678l9.287-17.564 18.848 13.679-18.563 36.981c-.017-1.215-15.054-31.418-15.054-31.418Z" style="fill:#1a73e8"/><path d="M349.426 267.693c.144-.003.358 5.114.478 11.426.121 6.314.102 11.434-.042 11.437-.143.002-.358-5.113-.478-11.427-.12-6.313-.102-11.433.042-11.436ZM414.626 281.92c-.03.02-.234-.265-.576-.795-.348-.527-.802-1.322-1.317-2.328-1.032-2.008-2.216-4.925-2.997-8.294-.772-3.373-.982-6.514-.933-8.772.023-1.13.084-2.042.167-2.668.076-.627.134-.971.17-.968.088.008-.017 1.396.032 3.635.044 2.237.31 5.328 1.072 8.656a43.582 43.582 0 0 0 2.821 8.252c.936 2.034 1.637 3.237 1.561 3.282Z" style="fill:#263238"/><path d="M272.372 458.855a2.52 2.52 0 0 0 2.52-2.521v-127.22h-5.04v127.22a2.52 2.52 0 0 0 2.52 2.52ZM463.904 458.855a2.52 2.52 0 0 0 2.521-2.521v-127.22h-5.041v127.22a2.52 2.52 0 0 0 2.52 2.52Z" style="fill:#e0e0e0"/><path d="M263.612 317.849h208.284v11.897H263.612zM269.516 333.592h198.185v37.572H269.516z" style="fill:#455a64"/><path d="M114.568 411.002h74.806v4.178h-74.806z" style="fill:#e0e0e0"/><path d="M113.26 460.007a2.528 2.528 0 0 0 2.521-2.535V269.947c0-1.4-1.128-2.536-2.52-2.536a2.528 2.528 0 0 0-2.521 2.536v187.523c0 1.4 1.128 2.536 2.52 2.536ZM190.144 460.051a2.528 2.528 0 0 0 2.521-2.535V267.808c0-1.4-1.128-2.536-2.52-2.536a2.528 2.528 0 0 0-2.522 2.536v189.708c0 1.4 1.129 2.536 2.521 2.536Z" style="fill:#e0e0e0"/><path d="M106.62 274.186h94.23a3.895 3.895 0 0 1 3.893 3.894v31.564a3.895 3.895 0 0 1-3.894 3.893H106.62a3.895 3.895 0 0 1-3.893-3.893V278.08a3.895 3.895 0 0 1 3.893-3.894Z" style="fill:#455a64"/><path d="M152.946 209.988c-2.455-7.02-7.691-13.027-14.312-16.415l.541-.446c-6.025-1.523-12.896 2.538-14.466 8.552-.645 2.468-.483 5.064-.663 7.608-.18 2.545-.793 5.227-2.62 7.007-.974.948-2.223 1.567-3.25 2.458-1.027.89-1.856 2.234-1.542 3.557.403 1.694 2.412 2.45 4.152 2.515 1.74.065 3.563-.268 5.17.403-2.092 2-2.13 5.75-.078 7.792 2.05 2.042 5.799 1.989 7.791-.112-.76 2.961 1.247 6.199 4.083 7.338 2.836 1.139 6.19.42 8.7-1.324 2.51-1.744 4.268-4.39 5.528-7.175 3.068-6.776 3.42-14.736.966-21.758Z" style="fill:#263238"/><path d="M190.378 191.153c-.54-2.028-2.618-3.345-4.696-3.642-2.077-.297-4.176.221-6.21.736.47-2.759.937-5.607.294-8.33-.643-2.724-2.692-5.317-5.463-5.701-2.388-.33-4.694 1.004-6.523 2.573-1.829 1.57-3.441 3.448-5.568 4.583-5.531 2.95-12.47-.002-18.544 1.55-6.237 1.592-11.17 9.1-9.92 15.415 10.527 3.367 21.153 6.779 30.677 12.385 5.15 3.031 10.71 6.847 16.551 5.588 3.632-.783 6.73-3.668 7.77-7.234 1.039-3.566-.024-7.664-2.667-10.275 2.415-1.95 5.097-4.65 4.299-7.648Z" style="fill:#263238"/><path d="M180.885 206.058c-1.081-8.282-10.6-15.988-18.828-14.556l-26.536 6.914 4.835 3.614 5.117 53.87s-.684 20.003 14.328 17.971c13.487-1.825 11.782-16.088 11.782-16.094l-1.115-10.419s10.915-1.174 12.187-15.185c.633-6.968-.568-16.913-1.77-26.115Z" style="fill:#ffbf9d"/><path d="M178.34 219.49c.096.937-.618 1.79-1.594 1.91-.975.117-1.844-.544-1.94-1.481-.096-.937.617-1.791 1.592-1.91.976-.118 1.846.545 1.942 1.481ZM178.934 213.597c-.205.247-1.62-.66-3.532-.526-1.913.105-3.251 1.184-3.474.963-.109-.096.087-.53.669-1.016.572-.484 1.57-.984 2.762-1.059 1.192-.073 2.224.299 2.83.71.619.411.846.817.745.928ZM162.651 221.199c.096.937-.618 1.79-1.594 1.909-.975.118-1.844-.544-1.94-1.48-.097-.937.618-1.792 1.592-1.91.976-.119 1.846.544 1.942 1.481ZM161.348 215.076c-.205.247-1.62-.66-3.532-.526-1.913.105-3.251 1.183-3.475.963-.108-.097.086-.53.67-1.016.572-.484 1.57-.984 2.762-1.059 1.192-.073 2.224.299 2.83.709.618.412.846.818.745.93ZM168.035 228.586c-.015-.092 1.164-.354 3.077-.705.486-.079.943-.195 1.009-.484.097-.308-.134-.739-.399-1.203-.517-.97-1.06-1.984-1.63-3.048-.609-1.107-3.66-7.389-3.728-8.01.21-.083 2.22 3.37 4.49 7.712.547 1.072 1.071 2.093 1.57 3.07.212.458.561.968.349 1.608-.113.32-.459.57-.768.665-.308.104-.582.129-.823.159-1.932.231-3.134.328-3.147.236Z" style="fill:#263238"/><path d="M170.468 247.358s-9.193 1.3-18.806-3.634c0 0 5.392 9.363 19.18 7.136l-.374-3.502Z" style="fill:#ff9a6c"/><path d="M161.31 207.492c-.18.605-1.857.276-3.841.547-1.989.217-3.602.949-3.851.396-.11-.264.18-.83.84-1.406.652-.573 1.685-1.108 2.876-1.257 1.191-.144 2.272.132 2.983.539.717.406 1.07.893.993 1.181ZM178.321 206.026c-.278.56-1.727.224-3.382.433-1.664.142-3.003.773-3.4.284-.178-.24-.03-.782.513-1.351.534-.568 1.486-1.103 2.627-1.225 1.14-.12 2.19.205 2.838.647.658.442.924.941.804 1.212Z" style="fill:#263238"/><path d="M179.162 198.277c-2.815-4.574-7.794-7.568-13.046-8.693s-10.757-.52-15.927.932c-5.171 1.453-10.067 3.728-14.937 5.993-1.18.55-2.46 1.2-2.957 2.403-.337.817-.242 1.74-.142 2.619l2.544 22.2 2.279 4.442c2.407-.12 4.336-2.001 5.796-3.919 5.1-6.695 7.48-15.401 6.494-23.76.77.882 1.063 2.067 1.514 3.147.45 1.08 1.204 2.18 2.35 2.416 1.915.394 3.368-1.833 3.544-3.779.177-1.946-.274-4.024.57-5.786a22.322 22.322 0 0 0 7.776 6.295c1.424.694 3.288 1.179 4.468.121.836-.749.979-2.048.643-3.119-.335-1.07-1.06-1.968-1.77-2.837a17.544 17.544 0 0 0 8.881 4.617c.73.14 1.58.2 2.124-.308.793-.74.364-2.062-.204-2.984Z" style="fill:#263238"/><path d="M143.163 220.861c-.218-.076-8.69-1.885-7.793 6.556.897 8.44 9.187 5.799 9.176 5.555-.012-.243-1.383-12.111-1.383-12.111Z" style="fill:#ffbf9d"/><path d="M141.627 230.048c-.04-.022-.136.12-.372.26a1.48 1.48 0 0 1-1.097.139c-.927-.233-1.828-1.569-2.03-3.085a4.877 4.877 0 0 1 .187-2.15c.192-.645.546-1.118.986-1.246a.752.752 0 0 1 .91.31c.14.225.103.399.15.408.025.019.166-.16.06-.502a.945.945 0 0 0-.387-.493 1.117 1.117 0 0 0-.837-.128c-.646.114-1.168.775-1.396 1.472a5.019 5.019 0 0 0-.26 2.406c.235 1.695 1.274 3.195 2.532 3.418.61.091 1.087-.14 1.322-.366.239-.237.263-.43.232-.443Z" style="fill:#ff9a6c"/><path d="M147.455 199.585c.014.005-.034.18-.14.508-.105.328-.278.807-.529 1.412a27.23 27.23 0 0 1-2.638 4.88 28.884 28.884 0 0 1-2.365 3.026c-.47.509-.95 1.03-1.5 1.537-.549.491-1.208.993-2.05 1.126-.842.15-1.745-.25-2.297-.904-.57-.648-.911-1.474-1.049-2.34-.229-1.772.424-3.47.481-5.202a7.502 7.502 0 0 0-.009-.663l.403.117-3.17 3.99-1.507 1.892c-.492.607-1.037 1.239-1.82 1.548-.39.147-.848.158-1.233-.01-.392-.157-.684-.465-.887-.784-.406-.649-.556-1.371-.648-2.034-.214-1.337-.2-2.606-.092-3.745.231-2.288.928-4.04 1.499-5.17.287-.568.547-.99.734-1.266.189-.276.294-.416.306-.408.036.023-.357.605-.885 1.748a15.39 15.39 0 0 0-1.343 5.125c-.086 1.117-.082 2.357.143 3.659.097.652.252 1.317.612 1.88.337.571 1.016.885 1.652.623.634-.252 1.157-.83 1.638-1.44l1.493-1.892 3.148-3.98.37-.468.033.585c.013.224.018.467.01.709-.072 1.825-.708 3.517-.494 5.122.12.79.437 1.55.934 2.12.49.577 1.214.895 1.918.78.704-.101 1.318-.541 1.848-1.01.532-.481 1.02-1 1.488-1.495a29.759 29.759 0 0 0 5.118-7.726c.274-.59.472-1.057.603-1.374.133-.317.21-.481.225-.476Z" style="fill:#455a64"/><path d="M166.313 231.762a28.678 28.678 0 0 0-3.958-1.593c-.436-.138-.917-.266-1.341-.094-.394.158-.651.542-.81.935-.513 1.268-.171 2.834.823 3.773.994.94 2.578 1.19 3.814.607s2.047-1.968 1.953-3.332l-.48-.295Z" style="fill:#ff9a6c"/><path d="M164.598 235.473c.016.02-.147.191-.535.35-.382.154-1.016.26-1.75.058a3.11 3.11 0 0 1-1.991-1.677c-.436-.916-.488-2.104-.058-3.185.216-.526.532-1.067 1.096-1.346.583-.275 1.182-.105 1.626.063.89.38 1.634.785 2.282 1.102 1.283.65 2.057 1.08 2.025 1.141-.032.06-.861-.26-2.172-.825-.656-.272-1.43-.648-2.29-.991-.424-.15-.888-.244-1.26-.054-.378.184-.66.621-.849 1.093-.38.954-.345 2.008.013 2.811a2.817 2.817 0 0 0 1.681 1.534 2.865 2.865 0 0 0 1.59.092c.375-.09.57-.202.592-.166Z" style="fill:#263238"/><path d="M145.655 355.896c-1.188 1.67 19.891 21.928 19.891 21.928-6.742 5.836-7.247 18.429-10.982 32.495-3.189 12.01-6.51 22.408-6.106 22.723l15.695 5.857s19.748-40.146 25.8-56.654c.324-.882.793-18.971-4.536-29.219-5.33-10.248-26.645-15.577-39.762 2.87ZM116.559 340.872c-.969.454-33.948 22.857-31.687 33.231s33.893 57.16 33.893 57.16l14.53-9.387s-14.895-40.921-18.918-45.032c-2.123-2.17 30.198-19.52 30.198-19.52l-28.016-16.452Z" style="fill:#ffbf9d"/><path d="m123.676 325.46-.988 5.95-17.76 15.677 21.384 23.288 18.263-11.658 11.37 11.658s8.067-11.16 19.777-11.74c11.71-.577 14.231 3.576 14.231 3.576l-2.52-16.074-1.281-18.005-62.476-2.672Z" style="fill:#263238"/><path d="M73.237 223.627s2.213-6.122 2.83-8.901c.616-2.78 3.977-7.616 3.977-7.616s-1.8-1.178-3.368-.118c-1.568 1.06-5.168 6.069-6.102 6.088-.935.019-2.82-1.682-2.905-2.203-.086-.522-2.505-12.85-3.764-13.18-1.26-.33-2.891.34-2.808 1.665s2.236 7.938 1.323 8.088c-.913.15-3.866-8.073-5.061-8.012-1.195.062-2.372 1.058-2.028 2.341.344 1.283 2.564 7.483 1.803 7.741-.762.259-2.806-6.505-3.631-6.638-.826-.133-1.808 1.233-1.549 1.995s3.06 8.874 2.08 9.436c-.98.562-3.906-3.382-4.558-3.667-.853-.372-1.67 1.409-.229 3.063.46.527 10.635 12.05 11.913 13.315s12.077-3.397 12.077-3.397Z" style="fill:#ffbf9d"/><path d="M130.287 248.24c-.53-.279-19.106-6.234-34.644-13.352l-24.166-16.394-10.317 8.53 25.425 20.666 25.347 13.35 18.355-12.8Z" style="fill:#ffbf9d"/><path d="M58.012 217.431c-.012-.053.834-.275 2.197-.036 1.338.23 3.212 1.03 4.543 2.715l.253.335-.475.057c.734-1.855 1.788-3.326 2.658-4.26.87-.939 1.523-1.381 1.564-1.333.134.11-2.312 2.174-3.716 5.792l-.176.452-.3-.395-.234-.31c-1.231-1.56-2.945-2.364-4.199-2.677-1.272-.322-2.11-.245-2.115-.34Z" style="fill:#ff9a6c"/><path d="M242.73 223.812s-2.29-6.092-2.943-8.864c-.652-2.771-4.074-7.564-4.074-7.564s1.785-1.201 3.366-.161c1.581 1.04 5.245 6.002 6.18 6.01.934.007 2.798-1.718 2.876-2.24.08-.523 2.341-12.881 3.596-13.227 1.255-.345 2.895.303 2.83 1.63-.067 1.326-2.136 7.965-1.221 8.103.915.138 3.762-8.122 4.958-8.076s2.385 1.028 2.058 2.315c-.328 1.288-2.468 7.515-1.704 7.764.765.248 2.723-6.54 3.546-6.684.824-.144 1.823 1.21 1.574 1.974-.249.765-2.946 8.913-1.96 9.463.987.55 3.863-3.432 4.512-3.725.847-.383 1.688 1.387.267 3.06-.452.533-10.48 12.185-11.741 13.465s-12.12-3.243-12.12-3.243Z" style="fill:#ffbf9d"/><path d="M186 249.151c.525-.285 19.024-6.477 34.47-13.793l23.955-16.7 10.425 8.397-25.16 20.989-25.174 13.672-18.517-12.565Z" style="fill:#ffbf9d"/><path d="M257.875 217.423c-.003.095-.843.029-2.11.367-1.25.329-2.954 1.155-4.165 2.73l-.23.313-.295.4-.182-.45c-1.45-3.6-3.922-5.634-3.789-5.745.04-.049.698.385 1.58 1.314.882.921 1.955 2.38 2.713 4.225l-.476-.05.248-.339c1.31-1.703 3.174-2.527 4.508-2.773 1.36-.256 2.21-.045 2.198.008Z" style="fill:#ff9a6c"/><path d="m142.64 248.977-7.778-.246-6.56-1.649-17.443-6.97-10.247 21.937 23.633 13.299.011 28.761-1.629 23.79s16.738 12.88 29.76 12.537c13.02-.343 34.893-10.241 34.893-10.241l2.591-55.644 21.408-10.107-7.717-23.084-18.613 5.995c-1.028-.063-12.508 3.565-12.508 3.565-2.609 7.77-11.503 7.317-14.38 7.305-9.397-.037-15.686-9.235-15.42-9.248Z" style="fill:#1a73e8"/><path d="M123.886 269.527c.019 0 .043.19.072.555l.102 1.592.264 5.861c.186 4.95.395 11.794.327 19.358-.073 7.567-.488 14.41-.96 19.345-.237 2.467-.46 4.46-.65 5.833l-.226 1.58c-.057.36-.096.549-.115.547-.019-.003-.016-.195.006-.56l.124-1.59c.12-1.459.28-3.435.478-5.842.373-4.936.726-11.765.799-19.318.068-7.551-.08-14.39-.168-19.342l-.09-5.865v-1.596c.006-.365.018-.557.037-.558ZM192.547 265.99c.085.034-.525 1.614-1.225 4.248-.696 2.635-1.398 6.34-1.812 10.482-.43 4.141-.59 7.915-.715 10.645l-.147 3.235c-.042.764-.084 1.187-.121 1.187-.038 0-.068-.424-.09-1.19a81.496 81.496 0 0 1-.027-3.242c.027-2.737.126-6.525.56-10.692.415-4.166 1.184-7.9 1.981-10.53a36.618 36.618 0 0 1 1.079-3.066c.3-.707.482-1.09.517-1.076ZM168.908 306.902c.023.03-.318.325-.956.834-.634.515-1.588 1.213-2.797 2.033-2.414 1.641-5.916 3.687-10.017 5.45-4.107 1.757-8.003 2.883-10.857 3.5-1.427.31-2.59.52-3.4.625-.809.11-1.258.154-1.264.117-.006-.037.432-.151 1.226-.326a89.565 89.565 0 0 0 3.35-.79 73.677 73.677 0 0 0 10.73-3.626 73.689 73.689 0 0 0 10.022-5.273 89.892 89.892 0 0 0 2.882-1.88c.674-.456 1.058-.694 1.081-.664Z" style="fill:#263238"/><path d="m120.638 435.28-7.995-13.228 16.747-11.196 6.886 13.188-3.942 8.466-5.734 4.017-5.962-1.247z" style="fill:#455a64"/><path d="m119.243 434.47.922 1.239s-13.009 18.244-9.857 22.867l34.917-21.912-9.083-13.073c-3.46 6.04-9.08 9.87-16.899 10.88Z" style="fill:#1a73e8"/><path d="m145.225 436.664-2.184-3.145-33.15 22.363s-.272 1.81.417 2.694l34.917-21.912Z" style="fill:#e0e0e0"/><path d="M123.7 440.22c.05-.023-.06-.363-.394-.837-.329-.472-.907-1.054-1.66-1.48-.754-.424-1.506-.592-2.029-.6-.526-.01-.824.099-.81.159.022.145 1.28.069 2.661.867 1.394.767 2.12 1.962 2.232 1.892ZM125.26 438.605c.106-.047-.664-1.338-2.18-2.18-1.51-.856-2.859-.753-2.824-.627.007.146 1.263.264 2.647 1.054 1.392.768 2.254 1.838 2.357 1.753ZM121.59 442.881c.12-.013-.205-1.213-1.276-2.254-1.063-1.05-2.218-1.3-2.221-1.172-.031.136.971.56 1.926 1.51.968.934 1.446 1.96 1.572 1.916Z" style="fill:#fff"/><path d="m165.652 438.462 5.697-14.453-18.705-6.67-4.147 13.798 5.764 7.347 6.498 2.606 4.893-2.628z" style="fill:#455a64"/><path d="m167.455 437.414-.616 1.416s16.819 14.805 14.802 20.025l-38.987-13.393 5.87-14.797c4.744 5.094 11.088 7.545 18.931 6.749Z" style="fill:#1a73e8"/><path d="m142.653 445.462 1.413-3.56 37.368 14.234s.676 1.7.207 2.719l-38.988-13.393Z" style="fill:#e0e0e0"/><path d="M164.423 444.028c-.053-.013-.023-.369.193-.906.213-.534.644-1.233 1.28-1.82.638-.583 1.332-.917 1.839-1.044.51-.13.825-.092.825-.03.012.147-1.23.358-2.394 1.45-1.183 1.064-1.618 2.393-1.743 2.35ZM162.537 442.809c-.114-.021.342-1.454 1.627-2.618 1.276-1.178 2.612-1.384 2.607-1.254.026.144-1.17.545-2.338 1.63-1.181 1.063-1.777 2.301-1.896 2.242ZM167.083 446.139c-.12.014-.076-1.229.73-2.486.796-1.264 1.864-1.77 1.896-1.647.061.126-.818.767-1.532 1.91-.73 1.13-.962 2.236-1.094 2.223Z" style="fill:#fff"/><path d="M49.164 460.051c1.392 0 2.52-1.139 2.52-2.544V329.115h-5.041v128.393c0 1.405 1.129 2.544 2.52 2.544ZM240.696 459.905a2.531 2.531 0 0 0 2.521-2.541v-128.25h-5.042v128.25a2.531 2.531 0 0 0 2.521 2.54Z" style="fill:#e0e0e0"/><path d="M40.404 317.849h208.284v11.897H40.404zM46.308 333.592h198.185v37.572H46.308z" style="fill:#455a64"/><path d="M105.465 318.05H47.803c-.972-3.588-1.069-6.95 0-10.01h57.662c1.49 3.37 1.16 7.369 0 10.01Z" style="fill:#1a73e8"/><path d="m64.891 311.176-.628 3.14h-.225l.534-2.669-1.736 2.252h-.112l-.889-2.283-.538 2.7h-.224l.628-3.14h.188l.938 2.427 1.862-2.427h.202ZM67.838 311.974l-.467 2.343h-.215l.09-.458c-.225.296-.57.476-.987.476-.606 0-1.01-.372-1.01-.974 0-.808.556-1.404 1.324-1.404.489 0 .812.22.924.6l.116-.582h.225Zm-.435.97c0-.498-.306-.785-.83-.785-.633 0-1.1.502-1.1 1.189 0 .498.306.785.83.785.633 0 1.1-.498 1.1-1.19ZM68.721 313.64a.777.777 0 0 0-.018.165c0 .22.117.337.36.337.138 0 .273-.045.38-.13l.068.166a.806.806 0 0 1-.503.157c-.336 0-.533-.184-.533-.498a.85.85 0 0 1 .017-.18l.301-1.49h-.435l.035-.192h.436l.103-.512h.224l-.103.512h.745l-.036.193h-.745l-.296 1.471ZM72.494 312.706c0 .08-.01.166-.027.256l-.27 1.355h-.223l.269-1.355a.995.995 0 0 0 .022-.224c0-.364-.22-.579-.66-.579-.533 0-.91.3-1.027.883l-.256 1.275h-.224l.664-3.33h.224l-.282 1.423c.229-.314.565-.453.96-.453.538 0 .83.287.83.75ZM73.314 313.195c-.004.05-.009.099-.009.148 0 .507.296.79.866.79.332 0 .62-.117.803-.314l.103.157c-.206.224-.551.359-.924.359-.664 0-1.068-.368-1.068-.983 0-.799.543-1.395 1.28-1.395.61 0 .995.368.995.978 0 .09-.013.184-.027.26h-2.019Zm.027-.175h1.804c.004-.04.004-.076.004-.116 0-.485-.323-.754-.79-.754-.515 0-.906.35-1.018.87ZM79.954 312.697c0 .085-.01.17-.027.265l-.274 1.355h-.224l.274-1.355c.017-.08.022-.157.022-.229 0-.36-.21-.574-.633-.574-.502 0-.874.283-.982.83l-.27 1.328h-.224l.274-1.355a1.03 1.03 0 0 0 .022-.229c0-.36-.21-.574-.632-.574-.516 0-.88.305-.996.883l-.256 1.275h-.224l.466-2.343h.22l-.09.44c.225-.318.557-.457.938-.457.435 0 .7.197.78.525.234-.35.593-.525 1.02-.525.533 0 .816.283.816.74ZM83.134 311.974l-.467 2.343h-.215l.09-.458c-.225.296-.57.476-.987.476-.606 0-1.01-.372-1.01-.974 0-.808.557-1.404 1.324-1.404.489 0 .812.22.924.6l.117-.582h.224Zm-.435.97c0-.498-.305-.785-.83-.785-.633 0-1.1.502-1.1 1.189 0 .498.306.785.83.785.633 0 1.1-.498 1.1-1.19ZM84.017 313.64a.772.772 0 0 0-.018.165c0 .22.117.337.36.337.138 0 .273-.045.38-.13l.068.166a.806.806 0 0 1-.503.157c-.336 0-.533-.184-.533-.498a.85.85 0 0 1 .017-.18l.301-1.49h-.435l.036-.192h.435l.103-.512h.224l-.103.512h.745l-.036.193h-.745l-.296 1.471ZM85.86 311.974h.225l-.467 2.343h-.224l.467-2.343Zm.077-.735c0-.108.085-.197.198-.197a.17.17 0 0 1 .174.165.195.195 0 0 1-.202.198.167.167 0 0 1-.17-.166ZM86.53 313.361c0-.812.56-1.404 1.345-1.404.417 0 .723.148.888.44l-.184.112c-.143-.238-.385-.35-.717-.35-.642 0-1.109.502-1.109 1.189 0 .498.306.785.848.785.31 0 .597-.121.777-.341l.157.125c-.207.265-.566.418-.951.418-.651 0-1.055-.382-1.055-.974ZM91.567 311.974l-.467 2.343h-.215l.09-.458c-.225.296-.57.476-.987.476-.606 0-1.01-.372-1.01-.974 0-.808.557-1.404 1.324-1.404.489 0 .812.22.924.6l.117-.582h.224Zm-.435.97c0-.498-.305-.785-.83-.785-.633 0-1.1.502-1.1 1.189 0 .498.306.785.83.785.633 0 1.1-.498 1.1-1.19ZM92.706 310.988h.224l-.664 3.329h-.224l.664-3.33ZM50.217 312.145l3.14.628v.229l-2.934-.588v.767l-.206-.04v-.996Z" style="fill:#f5f5f5"/><path d="M57.616 308.04c.07.024-.634 2.29-1.572 5.061-.94 2.772-1.757 5-1.827 4.976-.07-.024.635-2.29 1.573-5.062.939-2.77 1.757-4.998 1.826-4.975ZM59.966 308.04c.07.024-.635 2.29-1.573 5.061-.939 2.772-1.756 5-1.826 4.976-.07-.024.634-2.29 1.573-5.062.938-2.77 1.756-4.998 1.826-4.975ZM98.483 308.04c.07.024-.635 2.29-1.573 5.061-.94 2.772-1.757 5-1.827 4.976-.07-.024.635-2.29 1.573-5.062.939-2.77 1.756-4.998 1.826-4.975ZM100.832 308.04c.07.024-.634 2.29-1.573 5.061-.939 2.772-1.756 5-1.826 4.976s.634-2.29 1.573-5.062c.939-2.77 1.756-4.998 1.826-4.975Z" style="fill:#fff"/><path d="M97.3 308.149H39.64c-.972-2.556-1.069-4.95 0-7.13H97.3c1.49 2.4 1.16 5.249 0 7.13Z" style="fill:#455a64"/><path d="M59.04 303.016h.612v2.148h1.327v.5h-1.94v-2.648ZM63.105 304.502v1.162h-.552v-.254c-.11.185-.322.284-.62.284-.477 0-.76-.265-.76-.617 0-.36.253-.609.873-.609h.47c0-.253-.152-.4-.47-.4a.978.978 0 0 0-.586.189l-.212-.413c.223-.158.552-.246.877-.246.62 0 .98.288.98.904Zm-.59.519v-.208h-.405c-.276 0-.363.102-.363.238 0 .147.125.246.333.246.197 0 .367-.091.435-.277ZM65.718 304.499v1.164h-.59v-1.073c0-.33-.151-.481-.412-.481-.284 0-.488.174-.488.549v1.006h-.59v-2.035h.564v.238c.159-.174.397-.269.673-.269.48 0 .843.28.843.9ZM68.374 303.629v1.694c0 .756-.409 1.104-1.143 1.104-.385 0-.76-.094-.998-.28l.235-.423c.173.14.457.23.718.23.416 0 .597-.188.597-.555v-.087c-.155.17-.378.253-.642.253-.564 0-1.018-.39-1.018-.983 0-.594.454-.984 1.018-.984.283 0 .518.095.673.292v-.261h.56Zm-.583.953c0-.3-.223-.5-.533-.5-.31 0-.537.2-.537.5 0 .299.227.5.537.5.31 0 .533-.201.533-.5ZM70.972 303.629v2.034h-.56v-.242a.823.823 0 0 1-.632.273c-.51 0-.87-.288-.87-.916v-1.15h.59v1.063c0 .341.152.492.413.492.272 0 .469-.174.469-.548v-1.006h.59ZM73.32 304.502v1.162h-.551v-.254c-.11.185-.322.284-.62.284-.477 0-.761-.265-.761-.617 0-.36.254-.609.874-.609h.469c0-.253-.152-.4-.47-.4a.978.978 0 0 0-.585.189l-.212-.413c.223-.158.552-.246.877-.246.62 0 .98.288.98.904Zm-.59.519v-.208h-.404c-.276 0-.363.102-.363.238 0 .147.125.246.333.246.197 0 .367-.091.435-.277ZM75.976 303.629v1.694c0 .756-.409 1.104-1.143 1.104-.385 0-.76-.094-.998-.28l.235-.423c.174.14.457.23.718.23.416 0 .598-.188.598-.555v-.087c-.155.17-.378.253-.643.253-.564 0-1.018-.39-1.018-.983 0-.594.454-.984 1.018-.984.283 0 .518.095.673.292v-.261h.56Zm-.583.953c0-.3-.223-.5-.533-.5s-.537.2-.537.5c0 .299.227.5.537.5s.533-.201.533-.5ZM78.506 304.813h-1.54c.058.253.273.408.583.408a.69.69 0 0 0 .51-.197l.315.34c-.19.216-.473.33-.84.33-.703 0-1.16-.443-1.16-1.048 0-.609.464-1.048 1.084-1.048.598 0 1.06.401 1.06 1.056 0 .045-.008.11-.012.159Zm-1.547-.345h1.002a.483.483 0 0 0-.499-.423.481.481 0 0 0-.503.423ZM43.54 304.494h2.647v.613h-2.155v.53h-.492v-1.143Z" style="fill:#f5f5f5"/><path d="m47.531 301.019 2.734 7.13h3.588l-2.278-7.13H47.53zM82.936 301.019l2.734 7.13h3.588l-2.278-7.13h-4.044zM652.96 445.737c.012-.795-.45-1.657-1.227-1.827-1.03 2.25-2.074 4.525-3.603 6.47-1.53 1.946-3.615 3.561-6.044 4.037l.157.027 1.24 2.548c2.123-.436 3.96-1.812 5.352-3.474 1.391-1.663 2.391-3.61 3.38-5.54.361-.708.732-1.447.744-2.241Z" style="fill:#263238"/><path d="M661.176 381.45c-.828-1.237-1.69-2.754-1.12-4.129.43-1.032 1.535-1.597 2.585-1.98a18.83 18.83 0 0 1 5.516-1.11c1.095-.054 2.241.001 3.203.527 1.756.96 2.393 3.224 2.222 5.218-.589.232-1.194-.386-1.332-1.003-.139-.617-.019-1.277-.2-1.882-.223-.74-.876-1.293-1.6-1.563s-1.516-.295-2.288-.264a17.364 17.364 0 0 0-4.146.673c-.886.257-1.812.632-2.312 1.407-.807 1.25-.167 2.892.483 4.23" style="fill:#1a73e8"/><path d="M708.06 443.272s-13.098-47.13-14.584-51.185c-1.68-4.582-12.421-14.19-25.102-13.16-10.314.837-18.585 7.283-19.3 23.158-.492 10.942 1.834 34.392 3.327 47.91a11.096 11.096 0 0 0 11.355 9.873l40.381.004s7.958-7.488 3.922-16.6Z" style="fill:#1a73e8"/><path d="M668.788 422.62a4.457 4.457 0 0 0-3.978 4.905c.512 4.864 1.69 12.935 2.44 17.918a4.809 4.809 0 0 0 5.09 4.08l27.764-2.36a3.604 3.604 0 0 0 3.264-4.092c-.778-5.567-2.888-15.787-3.932-20.723a3.198 3.198 0 0 0-3.458-2.521c-6.06.624-20.222 2.082-27.19 2.794Z" style="fill:#263238"/><path d="M672.252 449.389c-.03.006-.133-.356-.296-1.017-.164-.66-.38-1.62-.63-2.81a177.948 177.948 0 0 1-1.687-9.347 177.946 177.946 0 0 1-1.196-9.425c-.118-1.21-.2-2.19-.242-2.87-.043-.678-.053-1.055-.023-1.058.03-.003.096.368.19 1.041l.378 2.852c.312 2.408.758 5.732 1.32 9.394.563 3.66 1.135 6.965 1.56 9.356l.495 2.834c.112.67.16 1.044.131 1.05Z" style="fill:#455a64"/><path d="M699.843 426.9c.005.03-.418.125-1.188.27-.769.147-1.885.338-3.267.56-2.764.442-6.594.985-10.837 1.474-4.245.487-8.098.827-10.89 1.024-1.396.098-2.527.165-3.31.197-.782.033-1.215.037-1.217.007-.002-.03.427-.09 1.205-.175l3.296-.333c2.783-.274 6.627-.662 10.867-1.149 4.238-.488 8.069-.983 10.842-1.348l3.286-.423c.777-.094 1.208-.132 1.213-.103Z" style="fill:#455a64"/><path d="M699.366 426.628c.048-.026.294.295.55.891.126.3.253.66.347 1.088.044.216.077.469.011.74a.958.958 0 0 1-.564.67c-.322.143-.717-.034-.869-.275-.18-.24-.21-.523-.207-.747.018-.448.095-.821.18-1.138.177-.628.395-.971.445-.95.06.024-.053.4-.146 1.014-.045.303-.086.68-.081 1.07-.018.372.241.746.522.623.326-.128.393-.552.318-.936a9.66 9.66 0 0 0-.244-1.057c-.173-.598-.319-.964-.262-.993Z" style="fill:#455a64"/><path d="M670.152 379.07c.002.007-.075.028-.227.062l-.674.14c-.592.122-1.468.291-2.585.55-1.116.262-2.477.615-3.99 1.2-1.497.606-3.179 1.453-4.634 2.876-1.474 1.396-2.62 3.383-3.297 5.673-.696 2.292-.884 4.878-.783 7.576.105 2.701.44 5.538.695 8.482l.84 9.112 1.596 17.606c.497 5.41.882 10.29 1.325 14.37.436 4.082.987 7.36 1.458 9.605a82.34 82.34 0 0 0 .58 2.579l.159.67c.033.15.046.23.04.232-.008.001-.036-.073-.083-.221l-.2-.66c-.169-.58-.4-1.444-.66-2.564-.523-2.24-1.122-5.521-1.597-9.607-.483-4.085-.899-8.96-1.418-14.368-.5-5.413-1.052-11.36-1.63-17.603l-.83-9.112c-.25-2.945-.576-5.778-.672-8.507-.092-2.723.112-5.356.837-7.694.706-2.333 1.899-4.368 3.428-5.789 1.511-1.447 3.236-2.29 4.758-2.88 1.54-.571 2.916-.902 4.041-1.14a52.973 52.973 0 0 1 2.607-.472l.682-.097c.154-.02.233-.026.234-.019Z" style="fill:#263238"/><path d="M670.191 397.119h14.212v5.438h-14.212z" style="fill:#fff" transform="rotate(-7.585 677.297 399.838)"/><path d="m651.085 405.035 1.839-16.81c-3.636 4.7-5.188 10.625-6.99 16.287a154.533 154.533 0 0 1-10.853 25.773c-2.596 4.877-5.488 9.7-6.769 15.073-1.28 5.375-2.116 9.649 1.637 13.703l14.437.189c1.074-1.379 2.102-3.375 1-4.731-.7-.861-1.972-.994-3.068-.824-1.097.17-2.169.574-3.278.531-2.774-.108-4.73-3.07-4.781-5.845-.051-2.776 1.264-5.37 2.504-7.854a241.047 241.047 0 0 0 14.322-35.492Z" style="fill:#1a73e8"/><path d="M650.373 392.304c.029.006-.012.367-.11 1.013a97.01 97.01 0 0 0-.386 2.74c-.302 2.316-.589 5.53-.67 9.092-.078 3.563.035 6.791.146 9.126l.134 2.767c.03.653.032 1.016.003 1.019-.03.003-.089-.355-.17-1.006a63.506 63.506 0 0 1-.271-2.76 91.263 91.263 0 0 1-.274-9.156c.082-3.58.419-6.81.8-9.125.188-1.158.369-2.09.523-2.728.15-.639.246-.988.275-.982Z" style="fill:#263238"/></svg>